<svg width="1360" height="768" viewBox="0 0 1360 768" fill="none" xmlns="http://www.w3.org/2000/svg">
<rect width="1360" height="768" fill="#1B242F"/>
<path d="M573.906 243H578.306V254.4H583.026V243H587.426V271H583.026V258.4H578.306V271H573.906V243ZM590.703 243H595.103V271H590.703V243ZM599.838 271H598.398V266.76H602.638V270.56L600.438 275.8H598.398L599.838 271ZM612.343 243H616.743V271H612.343V243ZM621.478 247.24H620.038V243H624.278V246.8L621.838 252.04H619.798L621.478 247.24ZM627.578 243H633.858L636.658 263.04H636.738L639.538 243H645.818V271H641.658V249.8H641.578L638.378 271H634.698L631.498 249.8H631.418V271H627.578V243ZM661.707 271.4C659.601 271.4 657.987 270.8 656.867 269.6C655.774 268.4 655.227 266.707 655.227 264.52V249.48C655.227 247.293 655.774 245.6 656.867 244.4C657.987 243.2 659.601 242.6 661.707 242.6C663.814 242.6 665.414 243.2 666.507 244.4C667.627 245.6 668.187 247.293 668.187 249.48V252.44H664.027V249.2C664.027 247.467 663.294 246.6 661.827 246.6C660.361 246.6 659.627 247.467 659.627 249.2V264.84C659.627 266.547 660.361 267.4 661.827 267.4C663.294 267.4 664.027 266.547 664.027 264.84V260.56H668.187V264.52C668.187 266.707 667.627 268.4 666.507 269.6C665.414 270.8 663.814 271.4 661.707 271.4ZM670.82 243H677.34C679.606 243 681.26 243.533 682.3 244.6C683.34 245.64 683.86 247.253 683.86 249.44V251.16C683.86 254.067 682.9 255.907 680.98 256.68V256.76C682.046 257.08 682.793 257.733 683.22 258.72C683.673 259.707 683.9 261.027 683.9 262.68V267.6C683.9 268.4 683.926 269.053 683.98 269.56C684.033 270.04 684.166 270.52 684.38 271H679.9C679.74 270.547 679.633 270.12 679.58 269.72C679.526 269.32 679.5 268.6 679.5 267.56V262.44C679.5 261.16 679.286 260.267 678.86 259.76C678.46 259.253 677.753 259 676.74 259H675.22V271H670.82V243ZM676.82 255C677.7 255 678.353 254.773 678.78 254.32C679.233 253.867 679.46 253.107 679.46 252.04V249.88C679.46 248.867 679.273 248.133 678.9 247.68C678.553 247.227 677.993 247 677.22 247H675.22V255H676.82ZM686.953 243H691.353V271H686.953V243ZM700.368 271.4C698.234 271.4 696.621 270.8 695.528 269.6C694.434 268.373 693.888 266.627 693.888 264.36V262.76H698.048V264.68C698.048 266.493 698.808 267.4 700.328 267.4C701.074 267.4 701.634 267.187 702.008 266.76C702.408 266.307 702.608 265.587 702.608 264.6C702.608 263.427 702.341 262.4 701.808 261.52C701.274 260.613 700.288 259.533 698.848 258.28C697.034 256.68 695.768 255.24 695.048 253.96C694.328 252.653 693.968 251.187 693.968 249.56C693.968 247.347 694.528 245.64 695.648 244.44C696.768 243.213 698.394 242.6 700.528 242.6C702.634 242.6 704.221 243.213 705.288 244.44C706.381 245.64 706.928 247.373 706.928 249.64V250.8H702.768V249.36C702.768 248.4 702.581 247.707 702.208 247.28C701.834 246.827 701.288 246.6 700.568 246.6C699.101 246.6 698.368 247.493 698.368 249.28C698.368 250.293 698.634 251.24 699.168 252.12C699.728 253 700.728 254.067 702.168 255.32C704.008 256.92 705.274 258.373 705.968 259.68C706.661 260.987 707.008 262.52 707.008 264.28C707.008 266.573 706.434 268.333 705.288 269.56C704.168 270.787 702.528 271.4 700.368 271.4ZM712.971 247H708.371V243H721.971V247H717.371V271H712.971V247ZM724.101 243H728.501V271H724.101V243ZM735.196 243H741.156L745.716 271H741.316L740.516 265.44V265.52H735.516L734.716 271H730.636L735.196 243ZM739.996 261.72L738.036 247.88H737.956L736.036 261.72H739.996ZM747.851 243H753.371L757.651 259.76H757.731V243H761.651V271H757.131L751.851 250.56H751.771V271H747.851V243ZM772.368 271.16C771.568 271.16 770.888 271.107 770.328 271V267C770.754 267.107 771.234 267.16 771.768 267.16C772.648 267.16 773.301 266.947 773.728 266.52C774.154 266.067 774.368 265.387 774.368 264.48V243H778.768V264.36C778.768 266.653 778.234 268.36 777.168 269.48C776.128 270.6 774.528 271.16 772.368 271.16ZM781.835 266.76H786.075V271H781.835V266.76Z" fill="#E31B6D"/>
<rect width="1360" height="70" fill="#2F2E41"/>
<g filter="url(#filter0_d_1_2)">
<path d="M169.28 41.8475L181.835 29.3312L169.28 16.8148L173.108 13L189.49 29.3312L173.108 45.6623L169.28 41.8475Z" fill="#E31B6D"/>
</g>
<g filter="url(#filter1_d_1_2)">
<path d="M178.21 54.1852L165.642 41.6689L178.197 29.1527L174.369 25.3379L158 41.6689L174.382 58L178.21 54.1852Z" fill="#E31B6D"/>
</g>
<path d="M726.82 27H729.02V32.7H731.38V27H733.58V41H731.38V34.7H729.02V41H726.82V27ZM738.398 41.2C737.318 41.2 736.492 40.8933 735.918 40.28C735.345 39.6667 735.058 38.8 735.058 37.68V30.32C735.058 29.2 735.345 28.3333 735.918 27.72C736.492 27.1067 737.318 26.8 738.398 26.8C739.478 26.8 740.305 27.1067 740.878 27.72C741.452 28.3333 741.738 29.2 741.738 30.32V37.68C741.738 38.8 741.452 39.6667 740.878 40.28C740.305 40.8933 739.478 41.2 738.398 41.2ZM738.398 39.2C739.158 39.2 739.538 38.74 739.538 37.82V30.18C739.538 29.26 739.158 28.8 738.398 28.8C737.638 28.8 737.258 29.26 737.258 30.18V37.82C737.258 38.74 737.638 39.2 738.398 39.2ZM743.226 27H746.366L747.766 37.02H747.806L749.206 27H752.346V41H750.266V30.4H750.226L748.626 41H746.786L745.186 30.4H745.146V41H743.226V27ZM753.988 27H759.988V29H756.188V32.7H759.208V34.7H756.188V39H759.988V41H753.988V27Z" fill="#E31B6D"/>
<path d="M813.52 27H816.5L818.78 41H816.58L816.18 38.22V38.26H813.68L813.28 41H811.24L813.52 27ZM815.92 36.36L814.94 29.44H814.9L813.94 36.36H815.92ZM819.847 27H823.167C824.301 27 825.127 27.2667 825.647 27.8C826.167 28.32 826.427 29.1267 826.427 30.22V30.78C826.427 31.5 826.307 32.0867 826.067 32.54C825.841 32.9933 825.487 33.32 825.007 33.52V33.56C826.101 33.9333 826.647 34.9067 826.647 36.48V37.68C826.647 38.76 826.361 39.5867 825.787 40.16C825.227 40.72 824.401 41 823.307 41H819.847V27ZM822.907 32.7C823.347 32.7 823.674 32.5867 823.887 32.36C824.114 32.1333 824.227 31.7533 824.227 31.22V30.44C824.227 29.9333 824.134 29.5667 823.947 29.34C823.774 29.1133 823.494 29 823.107 29H822.047V32.7H822.907ZM823.307 39C823.694 39 823.981 38.9 824.167 38.7C824.354 38.4867 824.447 38.1267 824.447 37.62V36.4C824.447 35.76 824.334 35.32 824.107 35.08C823.894 34.8267 823.534 34.7 823.027 34.7H822.047V39H823.307ZM831.113 41.2C830.033 41.2 829.207 40.8933 828.633 40.28C828.06 39.6667 827.773 38.8 827.773 37.68V30.32C827.773 29.2 828.06 28.3333 828.633 27.72C829.207 27.1067 830.033 26.8 831.113 26.8C832.193 26.8 833.02 27.1067 833.593 27.72C834.167 28.3333 834.453 29.2 834.453 30.32V37.68C834.453 38.8 834.167 39.6667 833.593 40.28C833.02 40.8933 832.193 41.2 831.113 41.2ZM831.113 39.2C831.873 39.2 832.253 38.74 832.253 37.82V30.18C832.253 29.26 831.873 28.8 831.113 28.8C830.353 28.8 829.973 29.26 829.973 30.18V37.82C829.973 38.74 830.353 39.2 831.113 39.2ZM839.141 41.2C838.074 41.2 837.261 40.9 836.701 40.3C836.141 39.6867 835.861 38.8133 835.861 37.68V27H838.061V37.84C838.061 38.32 838.154 38.6667 838.341 38.88C838.541 39.0933 838.821 39.2 839.181 39.2C839.541 39.2 839.814 39.0933 840.001 38.88C840.201 38.6667 840.301 38.32 840.301 37.84V27H842.421V37.68C842.421 38.8133 842.141 39.6867 841.581 40.3C841.021 40.9 840.208 41.2 839.141 41.2ZM845.708 29H843.408V27H850.208V29H847.908V41H845.708V29ZM854.476 27H857.616L859.016 37.02H859.056L860.456 27H863.596V41H861.516V30.4H861.476L859.876 41H858.036L856.436 30.4H856.396V41H854.476V27ZM865.238 27H871.238V29H867.438V32.7H870.458V34.7H867.438V39H871.238V41H865.238V27Z" fill="white"/>
<path d="M925.68 41.2C924.613 41.2 923.807 40.9 923.26 40.3C922.713 39.6867 922.44 38.8133 922.44 37.68V36.88H924.52V37.84C924.52 38.7467 924.9 39.2 925.66 39.2C926.033 39.2 926.313 39.0933 926.5 38.88C926.7 38.6533 926.8 38.2933 926.8 37.8C926.8 37.2133 926.667 36.7 926.4 36.26C926.133 35.8067 925.64 35.2667 924.92 34.64C924.013 33.84 923.38 33.12 923.02 32.48C922.66 31.8267 922.48 31.0933 922.48 30.28C922.48 29.1733 922.76 28.32 923.32 27.72C923.88 27.1067 924.693 26.8 925.76 26.8C926.813 26.8 927.607 27.1067 928.14 27.72C928.687 28.32 928.96 29.1867 928.96 30.32V30.9H926.88V30.18C926.88 29.7 926.787 29.3533 926.6 29.14C926.413 28.9133 926.14 28.8 925.78 28.8C925.047 28.8 924.68 29.2467 924.68 30.14C924.68 30.6467 924.813 31.12 925.08 31.56C925.36 32 925.86 32.5333 926.58 33.16C927.5 33.96 928.133 34.6867 928.48 35.34C928.827 35.9933 929 36.76 929 37.64C929 38.7867 928.713 39.6667 928.14 40.28C927.58 40.8933 926.76 41.2 925.68 41.2ZM931.981 29H929.681V27H936.481V29H934.181V41H931.981V29ZM938.329 27H941.309L943.589 41H941.389L940.989 38.22V38.26H938.489L938.089 41H936.049L938.329 27ZM940.729 36.36L939.749 29.44H939.709L938.749 36.36H940.729ZM947.717 41.2C946.664 41.2 945.857 40.9 945.297 40.3C944.75 39.7 944.477 38.8533 944.477 37.76V30.24C944.477 29.1467 944.75 28.3 945.297 27.7C945.857 27.1 946.664 26.8 947.717 26.8C948.77 26.8 949.57 27.1 950.117 27.7C950.677 28.3 950.957 29.1467 950.957 30.24V31.72H948.877V30.1C948.877 29.2333 948.51 28.8 947.777 28.8C947.044 28.8 946.677 29.2333 946.677 30.1V37.92C946.677 38.7733 947.044 39.2 947.777 39.2C948.51 39.2 948.877 38.7733 948.877 37.92V35.78H950.957V37.76C950.957 38.8533 950.677 39.7 950.117 40.3C949.57 40.9 948.77 41.2 947.717 41.2ZM952.273 27H954.473V32.9L957.273 27H959.473L956.853 32.14L959.513 41H957.213L955.353 34.76L954.473 36.54V41H952.273V27Z" fill="white"/>
<path d="M1010.82 27H1014.06C1015.15 27 1015.97 27.2933 1016.52 27.88C1017.07 28.4667 1017.34 29.3267 1017.34 30.46V31.84C1017.34 32.9733 1017.07 33.8333 1016.52 34.42C1015.97 35.0067 1015.15 35.3 1014.06 35.3H1013.02V41H1010.82V27ZM1014.06 33.3C1014.42 33.3 1014.69 33.2 1014.86 33C1015.05 32.8 1015.14 32.46 1015.14 31.98V30.32C1015.14 29.84 1015.05 29.5 1014.86 29.3C1014.69 29.1 1014.42 29 1014.06 29H1013.02V33.3H1014.06ZM1018.53 27H1021.79C1022.93 27 1023.75 27.2667 1024.27 27.8C1024.79 28.32 1025.05 29.1267 1025.05 30.22V31.08C1025.05 32.5333 1024.57 33.4533 1023.61 33.84V33.88C1024.15 34.04 1024.52 34.3667 1024.73 34.86C1024.96 35.3533 1025.07 36.0133 1025.07 36.84V39.3C1025.07 39.7 1025.09 40.0267 1025.11 40.28C1025.14 40.52 1025.21 40.76 1025.31 41H1023.07C1022.99 40.7733 1022.94 40.56 1022.91 40.36C1022.89 40.16 1022.87 39.8 1022.87 39.28V36.72C1022.87 36.08 1022.77 35.6333 1022.55 35.38C1022.35 35.1267 1022 35 1021.49 35H1020.73V41H1018.53V27ZM1021.53 33C1021.97 33 1022.3 32.8867 1022.51 32.66C1022.74 32.4333 1022.85 32.0533 1022.85 31.52V30.44C1022.85 29.9333 1022.76 29.5667 1022.57 29.34C1022.4 29.1133 1022.12 29 1021.73 29H1020.73V33H1021.53ZM1029.78 41.2C1028.7 41.2 1027.87 40.8933 1027.3 40.28C1026.73 39.6667 1026.44 38.8 1026.44 37.68V30.32C1026.44 29.2 1026.73 28.3333 1027.3 27.72C1027.87 27.1067 1028.7 26.8 1029.78 26.8C1030.86 26.8 1031.69 27.1067 1032.26 27.72C1032.83 28.3333 1033.12 29.2 1033.12 30.32V37.68C1033.12 38.8 1032.83 39.6667 1032.26 40.28C1031.69 40.8933 1030.86 41.2 1029.78 41.2ZM1029.78 39.2C1030.54 39.2 1030.92 38.74 1030.92 37.82V30.18C1030.92 29.26 1030.54 28.8 1029.78 28.8C1029.02 28.8 1028.64 29.26 1028.64 30.18V37.82C1028.64 38.74 1029.02 39.2 1029.78 39.2ZM1035.13 41.08C1034.73 41.08 1034.39 41.0533 1034.11 41V39C1034.32 39.0533 1034.56 39.08 1034.83 39.08C1035.27 39.08 1035.6 38.9733 1035.81 38.76C1036.02 38.5333 1036.13 38.1933 1036.13 37.74V27H1038.33V37.68C1038.33 38.8267 1038.06 39.68 1037.53 40.24C1037.01 40.8 1036.21 41.08 1035.13 41.08ZM1039.9 27H1045.9V29H1042.1V32.7H1045.12V34.7H1042.1V39H1045.9V41H1039.9V27ZM1050.27 41.2C1049.21 41.2 1048.41 40.9 1047.85 40.3C1047.3 39.7 1047.03 38.8533 1047.03 37.76V30.24C1047.03 29.1467 1047.3 28.3 1047.85 27.7C1048.41 27.1 1049.21 26.8 1050.27 26.8C1051.32 26.8 1052.12 27.1 1052.67 27.7C1053.23 28.3 1053.51 29.1467 1053.51 30.24V31.72H1051.43V30.1C1051.43 29.2333 1051.06 28.8 1050.33 28.8C1049.59 28.8 1049.23 29.2333 1049.23 30.1V37.92C1049.23 38.7733 1049.59 39.2 1050.33 39.2C1051.06 39.2 1051.43 38.7733 1051.43 37.92V35.78H1053.51V37.76C1053.51 38.8533 1053.23 39.7 1052.67 40.3C1052.12 40.9 1051.32 41.2 1050.27 41.2ZM1056.54 29H1054.24V27H1061.04V29H1058.74V41H1056.54V29Z" fill="white"/>
<path d="M1115.92 41.2C1114.87 41.2 1114.06 40.9 1113.5 40.3C1112.95 39.7 1112.68 38.8533 1112.68 37.76V30.24C1112.68 29.1467 1112.95 28.3 1113.5 27.7C1114.06 27.1 1114.87 26.8 1115.92 26.8C1116.97 26.8 1117.77 27.1 1118.32 27.7C1118.88 28.3 1119.16 29.1467 1119.16 30.24V31.72H1117.08V30.1C1117.08 29.2333 1116.71 28.8 1115.98 28.8C1115.25 28.8 1114.88 29.2333 1114.88 30.1V37.92C1114.88 38.7733 1115.25 39.2 1115.98 39.2C1116.71 39.2 1117.08 38.7733 1117.08 37.92V35.78H1119.16V37.76C1119.16 38.8533 1118.88 39.7 1118.32 40.3C1117.77 40.9 1116.97 41.2 1115.92 41.2ZM1123.7 41.2C1122.62 41.2 1121.79 40.8933 1121.22 40.28C1120.64 39.6667 1120.36 38.8 1120.36 37.68V30.32C1120.36 29.2 1120.64 28.3333 1121.22 27.72C1121.79 27.1067 1122.62 26.8 1123.7 26.8C1124.78 26.8 1125.6 27.1067 1126.18 27.72C1126.75 28.3333 1127.04 29.2 1127.04 30.32V37.68C1127.04 38.8 1126.75 39.6667 1126.18 40.28C1125.6 40.8933 1124.78 41.2 1123.7 41.2ZM1123.7 39.2C1124.46 39.2 1124.84 38.74 1124.84 37.82V30.18C1124.84 29.26 1124.46 28.8 1123.7 28.8C1122.94 28.8 1122.56 29.26 1122.56 30.18V37.82C1122.56 38.74 1122.94 39.2 1123.7 39.2ZM1128.52 27H1131.28L1133.42 35.38H1133.46V27H1135.42V41H1133.16L1130.52 30.78H1130.48V41H1128.52V27ZM1138.78 29H1136.48V27H1143.28V29H1140.98V41H1138.78V29ZM1145.13 27H1148.11L1150.39 41H1148.19L1147.79 38.22V38.26H1145.29L1144.89 41H1142.85L1145.13 27ZM1147.53 36.36L1146.55 29.44H1146.51L1145.55 36.36H1147.53ZM1154.51 41.2C1153.46 41.2 1152.65 40.9 1152.09 40.3C1151.55 39.7 1151.27 38.8533 1151.27 37.76V30.24C1151.27 29.1467 1151.55 28.3 1152.09 27.7C1152.65 27.1 1153.46 26.8 1154.51 26.8C1155.57 26.8 1156.37 27.1 1156.91 27.7C1157.47 28.3 1157.75 29.1467 1157.75 30.24V31.72H1155.67V30.1C1155.67 29.2333 1155.31 28.8 1154.57 28.8C1153.84 28.8 1153.47 29.2333 1153.47 30.1V37.92C1153.47 38.7733 1153.84 39.2 1154.57 39.2C1155.31 39.2 1155.67 38.7733 1155.67 37.92V35.78H1157.75V37.76C1157.75 38.8533 1157.47 39.7 1156.91 40.3C1156.37 40.9 1155.57 41.2 1154.51 41.2ZM1160.79 29H1158.49V27H1165.29V29H1162.99V41H1160.79V29ZM1169.56 27H1172.7L1174.1 37.02H1174.14L1175.54 27H1178.68V41H1176.6V30.4H1176.56L1174.96 41H1173.12L1171.52 30.4H1171.48V41H1169.56V27ZM1180.32 27H1186.32V29H1182.52V32.7H1185.54V34.7H1182.52V39H1186.32V41H1180.32V27Z" fill="white"/>
<path d="M382.76 346V332.04H393.02V334.14H385.28V337.72H390.54V339.82H385.28V346H382.76ZM403.628 339.96V338.58C403.628 338.033 403.461 337.593 403.128 337.26C402.808 336.913 402.341 336.74 401.728 336.74C400.981 336.74 400.301 337.013 399.688 337.56C399.075 338.107 398.561 338.967 398.148 340.14L397.848 337.9C398.155 337.207 398.515 336.627 398.928 336.16C399.355 335.68 399.835 335.32 400.368 335.08C400.915 334.84 401.508 334.72 402.148 334.72C403.281 334.72 404.208 335.053 404.928 335.72C405.648 336.387 406.008 337.34 406.008 338.58V339.96H403.628ZM396.188 346V334.96H398.448L398.568 337.3V346H396.188ZM413.836 346.24C412.676 346.24 411.676 346.007 410.836 345.54C410.009 345.073 409.369 344.413 408.916 343.56C408.476 342.693 408.256 341.667 408.256 340.48C408.256 339.28 408.476 338.253 408.916 337.4C409.369 336.547 410.009 335.887 410.836 335.42C411.676 334.953 412.676 334.72 413.836 334.72C415.569 334.72 416.929 335.233 417.916 336.26C418.903 337.273 419.396 338.68 419.396 340.48C419.396 341.667 419.169 342.693 418.716 343.56C418.276 344.413 417.636 345.073 416.796 345.54C415.969 346.007 414.983 346.24 413.836 346.24ZM413.836 344.28C414.809 344.28 415.576 343.94 416.136 343.26C416.709 342.58 416.996 341.653 416.996 340.48C416.996 339.293 416.709 338.367 416.136 337.7C415.576 337.02 414.809 336.68 413.836 336.68C412.836 336.68 412.056 337.02 411.496 337.7C410.936 338.367 410.656 339.293 410.656 340.48C410.656 341.653 410.936 342.58 411.496 343.26C412.056 343.94 412.836 344.28 413.836 344.28ZM429.544 346V339.1C429.544 338.38 429.344 337.807 428.944 337.38C428.557 336.953 428.05 336.74 427.424 336.74C426.704 336.74 426.05 337 425.464 337.52C424.89 338.027 424.397 338.847 423.984 339.98L423.624 337.6C424.064 336.627 424.664 335.907 425.424 335.44C426.184 334.96 426.997 334.72 427.864 334.72C428.704 334.72 429.424 334.9 430.024 335.26C430.637 335.607 431.104 336.1 431.424 336.74C431.757 337.367 431.924 338.107 431.924 338.96V346H429.544ZM421.844 346V334.96H424.124L424.224 337.28V346H421.844ZM440.752 346C440.045 346 439.438 345.853 438.932 345.56C438.425 345.267 438.038 344.853 437.772 344.32C437.505 343.773 437.372 343.14 437.372 342.42V332.96L439.772 331.76V342.42C439.772 342.753 439.818 343.047 439.912 343.3C440.005 343.553 440.185 343.747 440.452 343.88C440.732 344 441.132 344.06 441.652 344.06H444.792V346H440.752ZM434.912 336.9V334.96H442.972V336.9H434.912ZM449.699 340.86V338.78H455.999V340.86H449.699ZM465.987 346.24C464.827 346.24 463.827 346.013 462.987 345.56C462.147 345.093 461.501 344.427 461.047 343.56C460.607 342.693 460.387 341.66 460.387 340.46C460.387 339.26 460.614 338.233 461.067 337.38C461.521 336.513 462.174 335.853 463.027 335.4C463.881 334.947 464.901 334.72 466.087 334.72C467.927 334.72 469.281 335.233 470.147 336.26C471.027 337.287 471.407 338.693 471.287 340.48H462.287L462.307 338.74L468.847 338.76C468.794 338.12 468.514 337.607 468.007 337.22C467.501 336.833 466.861 336.64 466.087 336.64C464.994 336.64 464.167 336.98 463.607 337.66C463.047 338.34 462.767 339.307 462.767 340.56C462.767 341.28 462.894 341.927 463.147 342.5C463.401 343.06 463.761 343.5 464.227 343.82C464.707 344.127 465.294 344.28 465.987 344.28C466.774 344.28 467.427 344.093 467.947 343.72C468.481 343.347 468.807 342.847 468.927 342.22H471.327C471.167 343.46 470.607 344.44 469.647 345.16C468.701 345.88 467.481 346.24 465.987 346.24ZM481.575 346V339.1C481.575 338.38 481.375 337.807 480.975 337.38C480.588 336.953 480.082 336.74 479.455 336.74C478.735 336.74 478.082 337 477.495 337.52C476.922 338.027 476.428 338.847 476.015 339.98L475.655 337.6C476.095 336.627 476.695 335.907 477.455 335.44C478.215 334.96 479.028 334.72 479.895 334.72C480.735 334.72 481.455 334.9 482.055 335.26C482.668 335.607 483.135 336.1 483.455 336.74C483.788 337.367 483.955 338.107 483.955 338.96V346H481.575ZM473.875 346V334.96H476.155L476.255 337.28V346H473.875ZM491.243 334.72C491.963 334.72 492.623 334.86 493.223 335.14C493.823 335.42 494.316 335.8 494.703 336.28V331.26H497.083V346H494.803L494.743 344.6C494.369 345.093 493.876 345.493 493.263 345.8C492.649 346.093 491.976 346.24 491.243 346.24C490.269 346.24 489.409 345.993 488.663 345.5C487.916 344.993 487.329 344.307 486.903 343.44C486.489 342.56 486.283 341.573 486.283 340.48C486.283 339.373 486.489 338.387 486.903 337.52C487.329 336.653 487.916 335.973 488.663 335.48C489.409 334.973 490.269 334.72 491.243 334.72ZM491.803 344.26C492.469 344.26 493.056 344.067 493.563 343.68C494.083 343.28 494.463 342.753 494.703 342.1V338.84C494.463 338.173 494.083 337.653 493.563 337.28C493.056 336.893 492.469 336.7 491.803 336.7C491.189 336.7 490.643 336.867 490.163 337.2C489.696 337.52 489.329 337.967 489.063 338.54C488.796 339.1 488.663 339.747 488.663 340.48C488.663 341.2 488.796 341.847 489.063 342.42C489.329 342.98 489.696 343.427 490.163 343.76C490.643 344.093 491.189 344.26 491.803 344.26ZM594.945 369V354.3H596.965V369H594.945ZM590.885 369V367.36H601.045V369H590.885ZM592.345 355.94V354.3H595.945V355.94H592.345ZM611.833 369L611.753 366.5V361.8C611.753 361.013 611.493 360.4 610.973 359.96C610.466 359.507 609.766 359.28 608.873 359.28C608.006 359.28 607.3 359.48 606.753 359.88C606.206 360.267 605.906 360.807 605.853 361.5H603.873C603.94 360.713 604.193 360.047 604.633 359.5C605.073 358.94 605.66 358.513 606.393 358.22C607.126 357.913 607.973 357.76 608.933 357.76C609.92 357.76 610.773 357.927 611.493 358.26C612.213 358.58 612.766 359.047 613.153 359.66C613.553 360.273 613.753 361.02 613.753 361.9V369H611.833ZM607.853 369.24C607.133 369.24 606.5 369.113 605.953 368.86C605.406 368.593 604.98 368.22 604.673 367.74C604.366 367.247 604.213 366.673 604.213 366.02C604.213 364.887 604.646 364.007 605.513 363.38C606.393 362.753 607.62 362.44 609.193 362.44H612.013V363.94H609.113C608.206 363.94 607.493 364.113 606.973 364.46C606.466 364.807 606.213 365.293 606.213 365.92C606.213 366.44 606.393 366.847 606.753 367.14C607.126 367.433 607.626 367.58 608.253 367.58C609.053 367.58 609.76 367.367 610.373 366.94C611 366.5 611.506 365.9 611.893 365.14L612.113 366.62C611.766 367.46 611.233 368.107 610.513 368.56C609.793 369.013 608.906 369.24 607.853 369.24ZM624.921 369V362.06C624.921 361.287 624.701 360.667 624.261 360.2C623.821 359.72 623.248 359.48 622.541 359.48C621.728 359.48 621.001 359.78 620.361 360.38C619.734 360.967 619.234 361.887 618.861 363.14L618.541 360.88C618.954 359.84 619.548 359.06 620.321 358.54C621.108 358.02 621.961 357.76 622.881 357.76C623.708 357.76 624.421 357.94 625.021 358.3C625.634 358.647 626.108 359.133 626.441 359.76C626.774 360.387 626.941 361.127 626.941 361.98V369H624.921ZM617.081 369V358H619.001L619.101 360.48V369H617.081ZM638.029 359.58L638.089 358H639.989V367.8C639.989 369.427 639.549 370.667 638.669 371.52C637.802 372.373 636.489 372.8 634.729 372.8C633.755 372.8 632.909 372.667 632.189 372.4C631.482 372.133 630.922 371.733 630.509 371.2C630.109 370.68 629.882 370.027 629.829 369.24H631.929C631.995 369.84 632.262 370.3 632.729 370.62C633.209 370.953 633.909 371.12 634.829 371.12C635.869 371.12 636.649 370.853 637.169 370.32C637.702 369.787 637.969 369.027 637.969 368.04V366.58C637.595 367.14 637.095 367.58 636.469 367.9C635.855 368.22 635.169 368.38 634.409 368.38C633.462 368.38 632.622 368.153 631.889 367.7C631.169 367.247 630.602 366.62 630.189 365.82C629.775 365.007 629.569 364.093 629.569 363.08C629.569 361.987 629.782 361.047 630.209 360.26C630.635 359.46 631.222 358.847 631.969 358.42C632.715 357.98 633.562 357.76 634.509 357.76C635.269 357.76 635.955 357.927 636.569 358.26C637.182 358.593 637.669 359.033 638.029 359.58ZM634.849 366.8C635.569 366.8 636.209 366.593 636.769 366.18C637.342 365.753 637.742 365.18 637.969 364.46V361.68C637.742 360.96 637.342 360.393 636.769 359.98C636.209 359.553 635.569 359.34 634.849 359.34C634.195 359.34 633.622 359.5 633.129 359.82C632.649 360.14 632.269 360.58 631.989 361.14C631.722 361.687 631.589 362.327 631.589 363.06C631.589 363.78 631.722 364.427 631.989 365C632.269 365.56 632.649 366 633.129 366.32C633.622 366.64 634.195 366.8 634.849 366.8ZM644.917 358V364.94C644.917 365.713 645.137 366.34 645.577 366.82C646.017 367.287 646.59 367.52 647.297 367.52C648.11 367.52 648.83 367.227 649.457 366.64C650.097 366.04 650.603 365.113 650.977 363.86L651.297 366.12C650.883 367.16 650.283 367.94 649.497 368.46C648.723 368.98 647.877 369.24 646.957 369.24C646.13 369.24 645.41 369.067 644.797 368.72C644.197 368.36 643.73 367.867 643.397 367.24C643.063 366.613 642.897 365.873 642.897 365.02V358H644.917ZM652.757 358V369H650.837L650.737 366.52V358H652.757ZM663.864 369L663.784 366.5V361.8C663.784 361.013 663.524 360.4 663.004 359.96C662.498 359.507 661.798 359.28 660.904 359.28C660.038 359.28 659.331 359.48 658.784 359.88C658.238 360.267 657.938 360.807 657.884 361.5H655.904C655.971 360.713 656.224 360.047 656.664 359.5C657.104 358.94 657.691 358.513 658.424 358.22C659.158 357.913 660.004 357.76 660.964 357.76C661.951 357.76 662.804 357.927 663.524 358.26C664.244 358.58 664.798 359.047 665.184 359.66C665.584 360.273 665.784 361.02 665.784 361.9V369H663.864ZM659.884 369.24C659.164 369.24 658.531 369.113 657.984 368.86C657.438 368.593 657.011 368.22 656.704 367.74C656.398 367.247 656.244 366.673 656.244 366.02C656.244 364.887 656.678 364.007 657.544 363.38C658.424 362.753 659.651 362.44 661.224 362.44H664.044V363.94H661.144C660.238 363.94 659.524 364.113 659.004 364.46C658.498 364.807 658.244 365.293 658.244 365.92C658.244 366.44 658.424 366.847 658.784 367.14C659.158 367.433 659.658 367.58 660.284 367.58C661.084 367.58 661.791 367.367 662.404 366.94C663.031 366.5 663.538 365.9 663.924 365.14L664.144 366.62C663.798 367.46 663.264 368.107 662.544 368.56C661.824 369.013 660.938 369.24 659.884 369.24ZM677.052 359.58L677.112 358H679.012V367.8C679.012 369.427 678.572 370.667 677.692 371.52C676.826 372.373 675.512 372.8 673.752 372.8C672.779 372.8 671.932 372.667 671.212 372.4C670.506 372.133 669.946 371.733 669.532 371.2C669.132 370.68 668.906 370.027 668.852 369.24H670.952C671.019 369.84 671.286 370.3 671.752 370.62C672.232 370.953 672.932 371.12 673.852 371.12C674.892 371.12 675.672 370.853 676.192 370.32C676.726 369.787 676.992 369.027 676.992 368.04V366.58C676.619 367.14 676.119 367.58 675.492 367.9C674.879 368.22 674.192 368.38 673.432 368.38C672.486 368.38 671.646 368.153 670.912 367.7C670.192 367.247 669.626 366.62 669.212 365.82C668.799 365.007 668.592 364.093 668.592 363.08C668.592 361.987 668.806 361.047 669.232 360.26C669.659 359.46 670.246 358.847 670.992 358.42C671.739 357.98 672.586 357.76 673.532 357.76C674.292 357.76 674.979 357.927 675.592 358.26C676.206 358.593 676.692 359.033 677.052 359.58ZM673.872 366.8C674.592 366.8 675.232 366.593 675.792 366.18C676.366 365.753 676.766 365.18 676.992 364.46V361.68C676.766 360.96 676.366 360.393 675.792 359.98C675.232 359.553 674.592 359.34 673.872 359.34C673.219 359.34 672.646 359.5 672.152 359.82C671.672 360.14 671.292 360.58 671.012 361.14C670.746 361.687 670.612 362.327 670.612 363.06C670.612 363.78 670.746 364.427 671.012 365C671.292 365.56 671.672 366 672.152 366.32C672.646 366.64 673.219 366.8 673.872 366.8ZM687.12 369.24C685.987 369.24 685.007 369.013 684.18 368.56C683.353 368.093 682.72 367.433 682.28 366.58C681.84 365.713 681.62 364.68 681.62 363.48C681.62 362.28 681.84 361.253 682.28 360.4C682.733 359.547 683.373 358.893 684.2 358.44C685.04 357.987 686.04 357.76 687.2 357.76C688.973 357.76 690.293 358.253 691.16 359.24C692.027 360.213 692.407 361.553 692.3 363.26H683.22L683.24 361.74L690.24 361.76C690.187 361.053 689.88 360.487 689.32 360.06C688.76 359.633 688.053 359.42 687.2 359.42C686.053 359.42 685.173 359.78 684.56 360.5C683.947 361.22 683.64 362.24 683.64 363.56C683.64 364.347 683.773 365.047 684.04 365.66C684.32 366.26 684.72 366.727 685.24 367.06C685.76 367.393 686.387 367.56 687.12 367.56C687.987 367.56 688.707 367.353 689.28 366.94C689.867 366.527 690.227 365.967 690.36 365.26H692.38C692.207 366.5 691.653 367.473 690.72 368.18C689.787 368.887 688.587 369.24 687.12 369.24ZM700.308 369.24C699.334 369.24 698.474 369.073 697.728 368.74C696.994 368.393 696.428 367.913 696.028 367.3C695.628 366.673 695.421 365.927 695.408 365.06H697.308C697.308 365.873 697.581 366.513 698.128 366.98C698.674 367.447 699.394 367.68 700.288 367.68C701.048 367.68 701.654 367.54 702.108 367.26C702.574 366.967 702.808 366.573 702.808 366.08C702.808 365.693 702.674 365.387 702.408 365.16C702.154 364.92 701.814 364.733 701.388 364.6C700.961 364.467 700.488 364.353 699.968 364.26C699.461 364.153 698.948 364.033 698.428 363.9C697.921 363.753 697.454 363.573 697.028 363.36C696.601 363.133 696.254 362.833 695.988 362.46C695.721 362.087 695.588 361.6 695.588 361C695.588 360.373 695.768 359.82 696.128 359.34C696.488 358.847 696.994 358.46 697.648 358.18C698.314 357.9 699.101 357.76 700.008 357.76C701.381 357.76 702.481 358.08 703.308 358.72C704.148 359.347 704.601 360.213 704.668 361.32H702.768C702.728 360.68 702.461 360.187 701.968 359.84C701.488 359.48 700.834 359.3 700.008 359.3C699.234 359.3 698.641 359.453 698.228 359.76C697.828 360.067 697.628 360.453 697.628 360.92C697.628 361.28 697.761 361.567 698.028 361.78C698.294 361.98 698.641 362.14 699.068 362.26C699.494 362.367 699.961 362.467 700.468 362.56C700.988 362.64 701.501 362.747 702.008 362.88C702.528 363.013 703.001 363.2 703.428 363.44C703.854 363.667 704.194 363.98 704.448 364.38C704.714 364.78 704.848 365.3 704.848 365.94C704.848 366.967 704.434 367.773 703.608 368.36C702.781 368.947 701.681 369.24 700.308 369.24ZM794.123 359.58L794.183 358H796.083V367.8C796.083 369.427 795.643 370.667 794.763 371.52C793.896 372.373 792.583 372.8 790.823 372.8C789.849 372.8 789.003 372.667 788.283 372.4C787.576 372.133 787.016 371.733 786.603 371.2C786.203 370.68 785.976 370.027 785.923 369.24H788.023C788.089 369.84 788.356 370.3 788.823 370.62C789.303 370.953 790.003 371.12 790.923 371.12C791.963 371.12 792.743 370.853 793.263 370.32C793.796 369.787 794.063 369.027 794.063 368.04V366.58C793.689 367.14 793.189 367.58 792.563 367.9C791.949 368.22 791.263 368.38 790.503 368.38C789.556 368.38 788.716 368.153 787.983 367.7C787.263 367.247 786.696 366.62 786.283 365.82C785.869 365.007 785.663 364.093 785.663 363.08C785.663 361.987 785.876 361.047 786.303 360.26C786.729 359.46 787.316 358.847 788.063 358.42C788.809 357.98 789.656 357.76 790.603 357.76C791.363 357.76 792.049 357.927 792.663 358.26C793.276 358.593 793.763 359.033 794.123 359.58ZM790.943 366.8C791.663 366.8 792.303 366.593 792.863 366.18C793.436 365.753 793.836 365.18 794.063 364.46V361.68C793.836 360.96 793.436 360.393 792.863 359.98C792.303 359.553 791.663 359.34 790.943 359.34C790.289 359.34 789.716 359.5 789.223 359.82C788.743 360.14 788.363 360.58 788.083 361.14C787.816 361.687 787.683 362.327 787.683 363.06C787.683 363.78 787.816 364.427 788.083 365C788.363 365.56 788.743 366 789.223 366.32C789.716 366.64 790.289 366.8 790.943 366.8ZM807.07 362.72V361.4C807.07 360.827 806.897 360.367 806.55 360.02C806.204 359.66 805.704 359.48 805.05 359.48C804.224 359.48 803.484 359.793 802.83 360.42C802.177 361.033 801.657 361.973 801.27 363.24L800.99 361.2C801.284 360.44 801.637 359.807 802.05 359.3C802.477 358.793 802.964 358.413 803.51 358.16C804.07 357.893 804.684 357.76 805.35 357.76C806.457 357.76 807.357 358.08 808.05 358.72C808.744 359.347 809.09 360.24 809.09 361.4V362.72H807.07ZM799.63 369V358H801.53L801.65 360.5V369H799.63ZM819.958 369L819.878 366.5V361.8C819.878 361.013 819.618 360.4 819.098 359.96C818.591 359.507 817.891 359.28 816.998 359.28C816.131 359.28 815.425 359.48 814.878 359.88C814.331 360.267 814.031 360.807 813.978 361.5H811.998C812.065 360.713 812.318 360.047 812.758 359.5C813.198 358.94 813.785 358.513 814.518 358.22C815.251 357.913 816.098 357.76 817.058 357.76C818.045 357.76 818.898 357.927 819.618 358.26C820.338 358.58 820.891 359.047 821.278 359.66C821.678 360.273 821.878 361.02 821.878 361.9V369H819.958ZM815.978 369.24C815.258 369.24 814.625 369.113 814.078 368.86C813.531 368.593 813.105 368.22 812.798 367.74C812.491 367.247 812.338 366.673 812.338 366.02C812.338 364.887 812.771 364.007 813.638 363.38C814.518 362.753 815.745 362.44 817.318 362.44H820.138V363.94H817.238C816.331 363.94 815.618 364.113 815.098 364.46C814.591 364.807 814.338 365.293 814.338 365.92C814.338 366.44 814.518 366.847 814.878 367.14C815.251 367.433 815.751 367.58 816.378 367.58C817.178 367.58 817.885 367.367 818.498 366.94C819.125 366.5 819.631 365.9 820.018 365.14L820.238 366.62C819.891 367.46 819.358 368.107 818.638 368.56C817.918 369.013 817.031 369.24 815.978 369.24ZM830.726 357.76C831.713 357.76 832.573 358.007 833.306 358.5C834.053 358.98 834.639 359.653 835.066 360.52C835.493 361.387 835.706 362.38 835.706 363.5C835.706 364.607 835.493 365.593 835.066 366.46C834.639 367.327 834.053 368.007 833.306 368.5C832.573 368.993 831.713 369.24 830.726 369.24C829.979 369.24 829.293 369.087 828.666 368.78C828.053 368.473 827.546 368.053 827.146 367.52V372.56H825.126V358H827.046L827.106 359.5C827.506 358.967 828.019 358.547 828.646 358.24C829.273 357.92 829.966 357.76 830.726 357.76ZM830.286 367.54C830.966 367.54 831.559 367.367 832.066 367.02C832.573 366.673 832.966 366.2 833.246 365.6C833.526 364.987 833.666 364.287 833.666 363.5C833.666 362.7 833.526 362 833.246 361.4C832.966 360.787 832.573 360.313 832.066 359.98C831.559 359.633 830.966 359.46 830.286 359.46C829.593 359.46 828.959 359.66 828.386 360.06C827.826 360.447 827.413 360.98 827.146 361.66V365.3C827.413 365.993 827.826 366.54 828.386 366.94C828.959 367.34 829.593 367.54 830.286 367.54ZM846.054 369V362.08C846.054 361.293 845.834 360.667 845.394 360.2C844.954 359.72 844.38 359.48 843.674 359.48C842.86 359.48 842.134 359.78 841.494 360.38C840.867 360.967 840.367 361.887 839.994 363.14L839.674 360.9C840.087 359.847 840.68 359.06 841.454 358.54C842.24 358.02 843.094 357.76 844.014 357.76C844.84 357.76 845.554 357.94 846.154 358.3C846.767 358.647 847.24 359.14 847.574 359.78C847.907 360.407 848.074 361.147 848.074 362V369H846.054ZM838.214 369V354.28H840.234V369H838.214ZM855.202 369V358H857.222V369H855.202ZM851.142 369V367.36H861.002V369H851.142ZM852.602 359.64V358H856.202V359.64H852.602ZM855.062 356.12V353.94H857.322V356.12H855.062ZM869.429 369.24C868.296 369.24 867.309 369.007 866.469 368.54C865.643 368.06 865.003 367.393 864.549 366.54C864.096 365.673 863.869 364.66 863.869 363.5C863.869 362.313 864.103 361.293 864.569 360.44C865.036 359.573 865.689 358.913 866.529 358.46C867.369 357.993 868.349 357.76 869.469 357.76C870.363 357.76 871.163 357.927 871.869 358.26C872.589 358.58 873.169 359.04 873.609 359.64C874.063 360.24 874.323 360.953 874.389 361.78H872.369C872.263 361.033 871.943 360.46 871.409 360.06C870.889 359.647 870.243 359.44 869.469 359.44C868.749 359.44 868.123 359.607 867.589 359.94C867.056 360.26 866.643 360.72 866.349 361.32C866.056 361.92 865.909 362.647 865.909 363.5C865.909 364.767 866.229 365.76 866.869 366.48C867.523 367.2 868.376 367.56 869.429 367.56C869.909 367.56 870.356 367.467 870.769 367.28C871.183 367.093 871.536 366.827 871.829 366.48C872.123 366.12 872.323 365.707 872.429 365.24H874.469C874.336 366.067 874.029 366.78 873.549 367.38C873.083 367.967 872.489 368.427 871.769 368.76C871.063 369.08 870.283 369.24 869.429 369.24ZM894.545 357.76C895.305 357.76 895.998 357.913 896.625 358.22C897.252 358.513 897.758 358.927 898.145 359.46V354.3H900.145V369H898.245L898.185 367.46C897.798 367.993 897.285 368.427 896.645 368.76C896.018 369.08 895.318 369.24 894.545 369.24C893.572 369.24 892.712 368.993 891.965 368.5C891.218 368.007 890.632 367.327 890.205 366.46C889.792 365.593 889.585 364.607 889.585 363.5C889.585 362.38 889.792 361.387 890.205 360.52C890.632 359.653 891.218 358.98 891.965 358.5C892.712 358.007 893.572 357.76 894.545 357.76ZM894.985 367.54C895.705 367.54 896.345 367.34 896.905 366.94C897.465 366.527 897.878 365.973 898.145 365.28V361.7C897.878 360.993 897.465 360.447 896.905 360.06C896.345 359.66 895.705 359.46 894.985 359.46C894.318 359.46 893.732 359.633 893.225 359.98C892.718 360.313 892.318 360.787 892.025 361.4C891.745 362 891.605 362.7 891.605 363.5C891.605 364.287 891.745 364.987 892.025 365.6C892.318 366.2 892.718 366.673 893.225 367.02C893.732 367.367 894.318 367.54 894.985 367.54ZM908.253 369.24C907.119 369.24 906.139 369.013 905.313 368.56C904.486 368.093 903.853 367.433 903.413 366.58C902.973 365.713 902.753 364.68 902.753 363.48C902.753 362.28 902.973 361.253 903.413 360.4C903.866 359.547 904.506 358.893 905.333 358.44C906.173 357.987 907.173 357.76 908.333 357.76C910.106 357.76 911.426 358.253 912.293 359.24C913.159 360.213 913.539 361.553 913.433 363.26H904.353L904.373 361.74L911.373 361.76C911.319 361.053 911.013 360.487 910.453 360.06C909.893 359.633 909.186 359.42 908.333 359.42C907.186 359.42 906.306 359.78 905.693 360.5C905.079 361.22 904.773 362.24 904.773 363.56C904.773 364.347 904.906 365.047 905.173 365.66C905.453 366.26 905.853 366.727 906.373 367.06C906.893 367.393 907.519 367.56 908.253 367.56C909.119 367.56 909.839 367.353 910.413 366.94C910.999 366.527 911.359 365.967 911.493 365.26H913.513C913.339 366.5 912.786 367.473 911.853 368.18C910.919 368.887 909.719 369.24 908.253 369.24ZM921.441 369.24C920.467 369.24 919.607 369.073 918.861 368.74C918.127 368.393 917.561 367.913 917.161 367.3C916.761 366.673 916.554 365.927 916.541 365.06H918.441C918.441 365.873 918.714 366.513 919.261 366.98C919.807 367.447 920.527 367.68 921.421 367.68C922.181 367.68 922.787 367.54 923.241 367.26C923.707 366.967 923.941 366.573 923.941 366.08C923.941 365.693 923.807 365.387 923.541 365.16C923.287 364.92 922.947 364.733 922.521 364.6C922.094 364.467 921.621 364.353 921.101 364.26C920.594 364.153 920.081 364.033 919.561 363.9C919.054 363.753 918.587 363.573 918.161 363.36C917.734 363.133 917.387 362.833 917.121 362.46C916.854 362.087 916.721 361.6 916.721 361C916.721 360.373 916.901 359.82 917.261 359.34C917.621 358.847 918.127 358.46 918.781 358.18C919.447 357.9 920.234 357.76 921.141 357.76C922.514 357.76 923.614 358.08 924.441 358.72C925.281 359.347 925.734 360.213 925.801 361.32H923.901C923.861 360.68 923.594 360.187 923.101 359.84C922.621 359.48 921.967 359.3 921.141 359.3C920.367 359.3 919.774 359.453 919.361 359.76C918.961 360.067 918.761 360.453 918.761 360.92C918.761 361.28 918.894 361.567 919.161 361.78C919.427 361.98 919.774 362.14 920.201 362.26C920.627 362.367 921.094 362.467 921.601 362.56C922.121 362.64 922.634 362.747 923.141 362.88C923.661 363.013 924.134 363.2 924.561 363.44C924.987 363.667 925.327 363.98 925.581 364.38C925.847 364.78 925.981 365.3 925.981 365.94C925.981 366.967 925.567 367.773 924.741 368.36C923.914 368.947 922.814 369.24 921.441 369.24ZM933.248 369V358H935.268V369H933.248ZM929.188 369V367.36H939.048V369H929.188ZM930.648 359.64V358H934.248V359.64H930.648ZM933.108 356.12V353.94H935.368V356.12H933.108ZM950.216 359.58L950.276 358H952.176V367.8C952.176 369.427 951.736 370.667 950.856 371.52C949.99 372.373 948.676 372.8 946.916 372.8C945.943 372.8 945.096 372.667 944.376 372.4C943.67 372.133 943.11 371.733 942.696 371.2C942.296 370.68 942.07 370.027 942.016 369.24H944.116C944.183 369.84 944.45 370.3 944.916 370.62C945.396 370.953 946.096 371.12 947.016 371.12C948.056 371.12 948.836 370.853 949.356 370.32C949.89 369.787 950.156 369.027 950.156 368.04V366.58C949.783 367.14 949.283 367.58 948.656 367.9C948.043 368.22 947.356 368.38 946.596 368.38C945.65 368.38 944.81 368.153 944.076 367.7C943.356 367.247 942.79 366.62 942.376 365.82C941.963 365.007 941.756 364.093 941.756 363.08C941.756 361.987 941.97 361.047 942.396 360.26C942.823 359.46 943.41 358.847 944.156 358.42C944.903 357.98 945.75 357.76 946.696 357.76C947.456 357.76 948.143 357.927 948.756 358.26C949.37 358.593 949.856 359.033 950.216 359.58ZM947.036 366.8C947.756 366.8 948.396 366.593 948.956 366.18C949.53 365.753 949.93 365.18 950.156 364.46V361.68C949.93 360.96 949.53 360.393 948.956 359.98C948.396 359.553 947.756 359.34 947.036 359.34C946.383 359.34 945.81 359.5 945.316 359.82C944.836 360.14 944.456 360.58 944.176 361.14C943.91 361.687 943.776 362.327 943.776 363.06C943.776 363.78 943.91 364.427 944.176 365C944.456 365.56 944.836 366 945.316 366.32C945.81 366.64 946.383 366.8 947.036 366.8ZM963.124 369V362.06C963.124 361.287 962.904 360.667 962.464 360.2C962.024 359.72 961.451 359.48 960.744 359.48C959.931 359.48 959.204 359.78 958.564 360.38C957.937 360.967 957.437 361.887 957.064 363.14L956.744 360.88C957.157 359.84 957.751 359.06 958.524 358.54C959.311 358.02 960.164 357.76 961.084 357.76C961.911 357.76 962.624 357.94 963.224 358.3C963.837 358.647 964.311 359.133 964.644 359.76C964.977 360.387 965.144 361.127 965.144 361.98V369H963.124ZM955.284 369V358H957.204L957.304 360.48V369H955.284Z" fill="#E31B6D"/>
<path d="M517.318 334.76C518.078 334.76 518.772 334.913 519.398 335.22C520.025 335.513 520.532 335.927 520.918 336.46V331.3H522.918V346H521.018L520.958 344.46C520.572 344.993 520.058 345.427 519.418 345.76C518.792 346.08 518.092 346.24 517.318 346.24C516.345 346.24 515.485 345.993 514.738 345.5C513.992 345.007 513.405 344.327 512.978 343.46C512.565 342.593 512.358 341.607 512.358 340.5C512.358 339.38 512.565 338.387 512.978 337.52C513.405 336.653 513.992 335.98 514.738 335.5C515.485 335.007 516.345 334.76 517.318 334.76ZM517.758 344.54C518.478 344.54 519.118 344.34 519.678 343.94C520.238 343.527 520.652 342.973 520.918 342.28V338.7C520.652 337.993 520.238 337.447 519.678 337.06C519.118 336.66 518.478 336.46 517.758 336.46C517.092 336.46 516.505 336.633 515.998 336.98C515.492 337.313 515.092 337.787 514.798 338.4C514.518 339 514.378 339.7 514.378 340.5C514.378 341.287 514.518 341.987 514.798 342.6C515.092 343.2 515.492 343.673 515.998 344.02C516.505 344.367 517.092 344.54 517.758 344.54ZM531.026 346.24C529.893 346.24 528.913 346.013 528.086 345.56C527.26 345.093 526.626 344.433 526.186 343.58C525.746 342.713 525.526 341.68 525.526 340.48C525.526 339.28 525.746 338.253 526.186 337.4C526.64 336.547 527.28 335.893 528.106 335.44C528.946 334.987 529.946 334.76 531.106 334.76C532.88 334.76 534.2 335.253 535.066 336.24C535.933 337.213 536.313 338.553 536.206 340.26H527.126L527.146 338.74L534.146 338.76C534.093 338.053 533.786 337.487 533.226 337.06C532.666 336.633 531.96 336.42 531.106 336.42C529.96 336.42 529.08 336.78 528.466 337.5C527.853 338.22 527.546 339.24 527.546 340.56C527.546 341.347 527.68 342.047 527.946 342.66C528.226 343.26 528.626 343.727 529.146 344.06C529.666 344.393 530.293 344.56 531.026 344.56C531.893 344.56 532.613 344.353 533.186 343.94C533.773 343.527 534.133 342.967 534.266 342.26H536.286C536.113 343.5 535.56 344.473 534.626 345.18C533.693 345.887 532.493 346.24 531.026 346.24ZM542.774 346L538.474 335H540.614L543.154 341.62L543.934 344.14L544.734 341.62L547.274 335H549.334L545.054 346H542.774ZM557.042 346.24C555.909 346.24 554.929 346.013 554.102 345.56C553.275 345.093 552.642 344.433 552.202 343.58C551.762 342.713 551.542 341.68 551.542 340.48C551.542 339.28 551.762 338.253 552.202 337.4C552.655 336.547 553.295 335.893 554.122 335.44C554.962 334.987 555.962 334.76 557.122 334.76C558.895 334.76 560.215 335.253 561.082 336.24C561.949 337.213 562.329 338.553 562.222 340.26H553.142L553.162 338.74L560.162 338.76C560.109 338.053 559.802 337.487 559.242 337.06C558.682 336.633 557.975 336.42 557.122 336.42C555.975 336.42 555.095 336.78 554.482 337.5C553.869 338.22 553.562 339.24 553.562 340.56C553.562 341.347 553.695 342.047 553.962 342.66C554.242 343.26 554.642 343.727 555.162 344.06C555.682 344.393 556.309 344.56 557.042 344.56C557.909 344.56 558.629 344.353 559.202 343.94C559.789 343.527 560.149 342.967 560.282 342.26H562.302C562.129 343.5 561.575 344.473 560.642 345.18C559.709 345.887 558.509 346.24 557.042 346.24ZM568.93 346V331.3H570.95V346H568.93ZM564.87 346V344.36H575.03V346H564.87ZM566.33 332.94V331.3H569.93V332.94H566.33ZM582.918 346.24C581.784 346.24 580.804 346.007 579.978 345.54C579.164 345.073 578.538 344.413 578.098 343.56C577.658 342.693 577.438 341.673 577.438 340.5C577.438 339.3 577.658 338.28 578.098 337.44C578.538 336.587 579.164 335.927 579.978 335.46C580.804 334.993 581.791 334.76 582.938 334.76C584.644 334.76 585.984 335.273 586.958 336.3C587.931 337.313 588.418 338.713 588.418 340.5C588.418 341.673 588.198 342.693 587.758 343.56C587.318 344.413 586.684 345.073 585.858 345.54C585.044 346.007 584.064 346.24 582.918 346.24ZM582.938 344.56C584.004 344.56 584.844 344.2 585.458 343.48C586.084 342.747 586.398 341.753 586.398 340.5C586.398 339.233 586.084 338.24 585.458 337.52C584.844 336.8 584.004 336.44 582.938 336.44C581.858 336.44 581.011 336.8 580.398 337.52C579.784 338.24 579.478 339.233 579.478 340.5C579.478 341.753 579.784 342.747 580.398 343.48C581.011 344.2 581.858 344.56 582.938 344.56ZM596.585 334.76C597.572 334.76 598.432 335.007 599.165 335.5C599.912 335.98 600.499 336.653 600.925 337.52C601.352 338.387 601.565 339.38 601.565 340.5C601.565 341.607 601.352 342.593 600.925 343.46C600.499 344.327 599.912 345.007 599.165 345.5C598.432 345.993 597.572 346.24 596.585 346.24C595.839 346.24 595.152 346.087 594.525 345.78C593.912 345.473 593.405 345.053 593.005 344.52V349.56H590.985V335H592.905L592.965 336.5C593.365 335.967 593.879 335.547 594.505 335.24C595.132 334.92 595.825 334.76 596.585 334.76ZM596.145 344.54C596.825 344.54 597.419 344.367 597.925 344.02C598.432 343.673 598.825 343.2 599.105 342.6C599.385 341.987 599.525 341.287 599.525 340.5C599.525 339.7 599.385 339 599.105 338.4C598.825 337.787 598.432 337.313 597.925 336.98C597.419 336.633 596.825 336.46 596.145 336.46C595.452 336.46 594.819 336.66 594.245 337.06C593.685 337.447 593.272 337.98 593.005 338.66V342.3C593.272 342.993 593.685 343.54 594.245 343.94C594.819 344.34 595.452 344.54 596.145 344.54ZM609.073 346.24C607.94 346.24 606.96 346.013 606.133 345.56C605.306 345.093 604.673 344.433 604.233 343.58C603.793 342.713 603.573 341.68 603.573 340.48C603.573 339.28 603.793 338.253 604.233 337.4C604.686 336.547 605.326 335.893 606.153 335.44C606.993 334.987 607.993 334.76 609.153 334.76C610.926 334.76 612.246 335.253 613.113 336.24C613.98 337.213 614.36 338.553 614.253 340.26H605.173L605.193 338.74L612.193 338.76C612.14 338.053 611.833 337.487 611.273 337.06C610.713 336.633 610.006 336.42 609.153 336.42C608.006 336.42 607.126 336.78 606.513 337.5C605.9 338.22 605.593 339.24 605.593 340.56C605.593 341.347 605.726 342.047 605.993 342.66C606.273 343.26 606.673 343.727 607.193 344.06C607.713 344.393 608.34 344.56 609.073 344.56C609.94 344.56 610.66 344.353 611.233 343.94C611.82 343.527 612.18 342.967 612.313 342.26H614.333C614.16 343.5 613.606 344.473 612.673 345.18C611.74 345.887 610.54 346.24 609.073 346.24ZM624.961 339.72V338.4C624.961 337.827 624.788 337.367 624.441 337.02C624.094 336.66 623.594 336.48 622.941 336.48C622.114 336.48 621.374 336.793 620.721 337.42C620.068 338.033 619.548 338.973 619.161 340.24L618.881 338.2C619.174 337.44 619.528 336.807 619.941 336.3C620.368 335.793 620.854 335.413 621.401 335.16C621.961 334.893 622.574 334.76 623.241 334.76C624.348 334.76 625.248 335.08 625.941 335.72C626.634 336.347 626.981 337.24 626.981 338.4V339.72H624.961ZM617.521 346V335H619.421L619.541 337.5V346H617.521ZM648.617 334.76C649.603 334.76 650.463 335.007 651.197 335.5C651.943 335.98 652.53 336.653 652.957 337.52C653.383 338.387 653.597 339.38 653.597 340.5C653.597 341.607 653.383 342.593 652.957 343.46C652.53 344.327 651.943 345.007 651.197 345.5C650.463 345.993 649.603 346.24 648.617 346.24C647.87 346.24 647.183 346.087 646.557 345.78C645.943 345.473 645.437 345.053 645.037 344.52V349.56H643.017V335H644.937L644.997 336.5C645.397 335.967 645.91 335.547 646.537 335.24C647.163 334.92 647.857 334.76 648.617 334.76ZM648.177 344.54C648.857 344.54 649.45 344.367 649.957 344.02C650.463 343.673 650.857 343.2 651.137 342.6C651.417 341.987 651.557 341.287 651.557 340.5C651.557 339.7 651.417 339 651.137 338.4C650.857 337.787 650.463 337.313 649.957 336.98C649.45 336.633 648.857 336.46 648.177 336.46C647.483 336.46 646.85 336.66 646.277 337.06C645.717 337.447 645.303 337.98 645.037 338.66V342.3C645.303 342.993 645.717 343.54 646.277 343.94C646.85 344.34 647.483 344.54 648.177 344.54ZM663.864 346L663.784 343.5V338.8C663.784 338.013 663.524 337.4 663.004 336.96C662.498 336.507 661.798 336.28 660.904 336.28C660.038 336.28 659.331 336.48 658.784 336.88C658.238 337.267 657.938 337.807 657.884 338.5H655.904C655.971 337.713 656.224 337.047 656.664 336.5C657.104 335.94 657.691 335.513 658.424 335.22C659.158 334.913 660.004 334.76 660.964 334.76C661.951 334.76 662.804 334.927 663.524 335.26C664.244 335.58 664.798 336.047 665.184 336.66C665.584 337.273 665.784 338.02 665.784 338.9V346H663.864ZM659.884 346.24C659.164 346.24 658.531 346.113 657.984 345.86C657.438 345.593 657.011 345.22 656.704 344.74C656.398 344.247 656.244 343.673 656.244 343.02C656.244 341.887 656.678 341.007 657.544 340.38C658.424 339.753 659.651 339.44 661.224 339.44H664.044V340.94H661.144C660.238 340.94 659.524 341.113 659.004 341.46C658.498 341.807 658.244 342.293 658.244 342.92C658.244 343.44 658.424 343.847 658.784 344.14C659.158 344.433 659.658 344.58 660.284 344.58C661.084 344.58 661.791 344.367 662.404 343.94C663.031 343.5 663.538 342.9 663.924 342.14L664.144 343.62C663.798 344.46 663.264 345.107 662.544 345.56C661.824 346.013 660.938 346.24 659.884 346.24ZM674.292 346.24C673.319 346.24 672.459 346.073 671.712 345.74C670.979 345.393 670.412 344.913 670.012 344.3C669.612 343.673 669.406 342.927 669.392 342.06H671.292C671.292 342.873 671.566 343.513 672.112 343.98C672.659 344.447 673.379 344.68 674.272 344.68C675.032 344.68 675.639 344.54 676.092 344.26C676.559 343.967 676.792 343.573 676.792 343.08C676.792 342.693 676.659 342.387 676.392 342.16C676.139 341.92 675.799 341.733 675.372 341.6C674.946 341.467 674.472 341.353 673.952 341.26C673.446 341.153 672.932 341.033 672.412 340.9C671.906 340.753 671.439 340.573 671.012 340.36C670.586 340.133 670.239 339.833 669.972 339.46C669.706 339.087 669.572 338.6 669.572 338C669.572 337.373 669.752 336.82 670.112 336.34C670.472 335.847 670.979 335.46 671.632 335.18C672.299 334.9 673.086 334.76 673.992 334.76C675.366 334.76 676.466 335.08 677.292 335.72C678.132 336.347 678.586 337.213 678.652 338.32H676.752C676.712 337.68 676.446 337.187 675.952 336.84C675.472 336.48 674.819 336.3 673.992 336.3C673.219 336.3 672.626 336.453 672.212 336.76C671.812 337.067 671.612 337.453 671.612 337.92C671.612 338.28 671.746 338.567 672.012 338.78C672.279 338.98 672.626 339.14 673.052 339.26C673.479 339.367 673.946 339.467 674.452 339.56C674.972 339.64 675.486 339.747 675.992 339.88C676.512 340.013 676.986 340.2 677.412 340.44C677.839 340.667 678.179 340.98 678.432 341.38C678.699 341.78 678.832 342.3 678.832 342.94C678.832 343.967 678.419 344.773 677.592 345.36C676.766 345.947 675.666 346.24 674.292 346.24ZM687.3 346.24C686.327 346.24 685.467 346.073 684.72 345.74C683.987 345.393 683.42 344.913 683.02 344.3C682.62 343.673 682.413 342.927 682.4 342.06H684.3C684.3 342.873 684.573 343.513 685.12 343.98C685.667 344.447 686.387 344.68 687.28 344.68C688.04 344.68 688.647 344.54 689.1 344.26C689.567 343.967 689.8 343.573 689.8 343.08C689.8 342.693 689.667 342.387 689.4 342.16C689.147 341.92 688.807 341.733 688.38 341.6C687.953 341.467 687.48 341.353 686.96 341.26C686.453 341.153 685.94 341.033 685.42 340.9C684.913 340.753 684.447 340.573 684.02 340.36C683.593 340.133 683.247 339.833 682.98 339.46C682.713 339.087 682.58 338.6 682.58 338C682.58 337.373 682.76 336.82 683.12 336.34C683.48 335.847 683.987 335.46 684.64 335.18C685.307 334.9 686.093 334.76 687 334.76C688.373 334.76 689.473 335.08 690.3 335.72C691.14 336.347 691.593 337.213 691.66 338.32H689.76C689.72 337.68 689.453 337.187 688.96 336.84C688.48 336.48 687.827 336.3 687 336.3C686.227 336.3 685.633 336.453 685.22 336.76C684.82 337.067 684.62 337.453 684.62 337.92C684.62 338.28 684.753 338.567 685.02 338.78C685.287 338.98 685.633 339.14 686.06 339.26C686.487 339.367 686.953 339.467 687.46 339.56C687.98 339.64 688.493 339.747 689 339.88C689.52 340.013 689.993 340.2 690.42 340.44C690.847 340.667 691.187 340.98 691.44 341.38C691.707 341.78 691.84 342.3 691.84 342.94C691.84 343.967 691.427 344.773 690.6 345.36C689.773 345.947 688.673 346.24 687.3 346.24ZM699.108 346V335H701.128V346H699.108ZM695.048 346V344.36H704.908V346H695.048ZM696.508 336.64V335H700.108V336.64H696.508ZM698.968 333.12V330.94H701.228V333.12H698.968ZM712.996 346.24C711.862 346.24 710.882 346.007 710.056 345.54C709.242 345.073 708.616 344.413 708.176 343.56C707.736 342.693 707.516 341.673 707.516 340.5C707.516 339.3 707.736 338.28 708.176 337.44C708.616 336.587 709.242 335.927 710.056 335.46C710.882 334.993 711.869 334.76 713.016 334.76C714.722 334.76 716.062 335.273 717.036 336.3C718.009 337.313 718.496 338.713 718.496 340.5C718.496 341.673 718.276 342.693 717.836 343.56C717.396 344.413 716.762 345.073 715.936 345.54C715.122 346.007 714.142 346.24 712.996 346.24ZM713.016 344.56C714.082 344.56 714.922 344.2 715.536 343.48C716.162 342.747 716.476 341.753 716.476 340.5C716.476 339.233 716.162 338.24 715.536 337.52C714.922 336.8 714.082 336.44 713.016 336.44C711.936 336.44 711.089 336.8 710.476 337.52C709.862 338.24 709.556 339.233 709.556 340.5C709.556 341.753 709.862 342.747 710.476 343.48C711.089 344.2 711.936 344.56 713.016 344.56ZM728.983 346V339.06C728.983 338.287 728.763 337.667 728.323 337.2C727.883 336.72 727.31 336.48 726.603 336.48C725.79 336.48 725.063 336.78 724.423 337.38C723.797 337.967 723.297 338.887 722.923 340.14L722.603 337.88C723.017 336.84 723.61 336.06 724.383 335.54C725.17 335.02 726.023 334.76 726.943 334.76C727.77 334.76 728.483 334.94 729.083 335.3C729.697 335.647 730.17 336.133 730.503 336.76C730.837 337.387 731.003 338.127 731.003 338.98V346H728.983ZM721.143 346V335H723.063L723.163 337.48V346H721.143ZM741.911 346L741.831 343.5V338.8C741.831 338.013 741.571 337.4 741.051 336.96C740.545 336.507 739.845 336.28 738.951 336.28C738.085 336.28 737.378 336.48 736.831 336.88C736.285 337.267 735.985 337.807 735.931 338.5H733.951C734.018 337.713 734.271 337.047 734.711 336.5C735.151 335.94 735.738 335.513 736.471 335.22C737.205 334.913 738.051 334.76 739.011 334.76C739.998 334.76 740.851 334.927 741.571 335.26C742.291 335.58 742.845 336.047 743.231 336.66C743.631 337.273 743.831 338.02 743.831 338.9V346H741.911ZM737.931 346.24C737.211 346.24 736.578 346.113 736.031 345.86C735.485 345.593 735.058 345.22 734.751 344.74C734.445 344.247 734.291 343.673 734.291 343.02C734.291 341.887 734.725 341.007 735.591 340.38C736.471 339.753 737.698 339.44 739.271 339.44H742.091V340.94H739.191C738.285 340.94 737.571 341.113 737.051 341.46C736.545 341.807 736.291 342.293 736.291 342.92C736.291 343.44 736.471 343.847 736.831 344.14C737.205 344.433 737.705 344.58 738.331 344.58C739.131 344.58 739.838 344.367 740.451 343.94C741.078 343.5 741.585 342.9 741.971 342.14L742.191 343.62C741.845 344.46 741.311 345.107 740.591 345.56C739.871 346.013 738.985 346.24 737.931 346.24ZM752.939 346C752.259 346 751.679 345.867 751.199 345.6C750.719 345.32 750.359 344.927 750.119 344.42C749.879 343.913 749.759 343.32 749.759 342.64V332.92L751.779 331.82V342.64C751.779 342.96 751.826 343.253 751.919 343.52C752.012 343.787 752.192 343.993 752.459 344.14C752.739 344.287 753.146 344.36 753.679 344.36H756.979V346H752.939ZM747.159 336.64V335H755.219V336.64H747.159ZM765.167 346.24C764.034 346.24 763.054 346.013 762.227 345.56C761.4 345.093 760.767 344.433 760.327 343.58C759.887 342.713 759.667 341.68 759.667 340.48C759.667 339.28 759.887 338.253 760.327 337.4C760.78 336.547 761.42 335.893 762.247 335.44C763.087 334.987 764.087 334.76 765.247 334.76C767.02 334.76 768.34 335.253 769.207 336.24C770.074 337.213 770.454 338.553 770.347 340.26H761.267L761.287 338.74L768.287 338.76C768.234 338.053 767.927 337.487 767.367 337.06C766.807 336.633 766.1 336.42 765.247 336.42C764.1 336.42 763.22 336.78 762.607 337.5C761.994 338.22 761.687 339.24 761.687 340.56C761.687 341.347 761.82 342.047 762.087 342.66C762.367 343.26 762.767 343.727 763.287 344.06C763.807 344.393 764.434 344.56 765.167 344.56C766.034 344.56 766.754 344.353 767.327 343.94C767.914 343.527 768.274 342.967 768.407 342.26H770.427C770.254 343.5 769.7 344.473 768.767 345.18C767.834 345.887 766.634 346.24 765.167 346.24ZM793.943 346L793.863 343.5V338.8C793.863 338.013 793.603 337.4 793.083 336.96C792.576 336.507 791.876 336.28 790.983 336.28C790.116 336.28 789.409 336.48 788.863 336.88C788.316 337.267 788.016 337.807 787.963 338.5H785.983C786.049 337.713 786.303 337.047 786.743 336.5C787.183 335.94 787.769 335.513 788.503 335.22C789.236 334.913 790.083 334.76 791.043 334.76C792.029 334.76 792.883 334.927 793.603 335.26C794.323 335.58 794.876 336.047 795.263 336.66C795.663 337.273 795.862 338.02 795.862 338.9V346H793.943ZM789.963 346.24C789.243 346.24 788.609 346.113 788.063 345.86C787.516 345.593 787.089 345.22 786.783 344.74C786.476 344.247 786.323 343.673 786.323 343.02C786.323 341.887 786.756 341.007 787.623 340.38C788.503 339.753 789.729 339.44 791.303 339.44H794.123V340.94H791.223C790.316 340.94 789.603 341.113 789.083 341.46C788.576 341.807 788.323 342.293 788.323 342.92C788.323 343.44 788.503 343.847 788.863 344.14C789.236 344.433 789.736 344.58 790.363 344.58C791.163 344.58 791.869 344.367 792.483 343.94C793.109 343.5 793.616 342.9 794.003 342.14L794.223 343.62C793.876 344.46 793.343 345.107 792.623 345.56C791.903 346.013 791.016 346.24 789.963 346.24ZM804.73 334.76C805.717 334.76 806.577 335.007 807.31 335.5C808.057 335.98 808.644 336.653 809.07 337.52C809.497 338.387 809.71 339.38 809.71 340.5C809.71 341.607 809.497 342.593 809.07 343.46C808.644 344.327 808.057 345.007 807.31 345.5C806.577 345.993 805.717 346.24 804.73 346.24C803.97 346.24 803.27 346.08 802.63 345.76C802.004 345.427 801.497 344.993 801.11 344.46L801.05 346H799.13V331.3H801.15V336.46C801.537 335.927 802.044 335.513 802.67 335.22C803.297 334.913 803.984 334.76 804.73 334.76ZM804.29 344.54C804.97 344.54 805.564 344.367 806.07 344.02C806.577 343.673 806.97 343.2 807.25 342.6C807.53 341.987 807.67 341.287 807.67 340.5C807.67 339.7 807.53 339 807.25 338.4C806.97 337.787 806.577 337.313 806.07 336.98C805.564 336.633 804.97 336.46 804.29 336.46C803.584 336.46 802.95 336.66 802.39 337.06C801.83 337.447 801.417 337.993 801.15 338.7V342.28C801.417 342.973 801.83 343.527 802.39 343.94C802.95 344.34 803.584 344.54 804.29 344.54ZM817.058 346.24C815.925 346.24 814.945 346.007 814.118 345.54C813.305 345.073 812.678 344.413 812.238 343.56C811.798 342.693 811.578 341.673 811.578 340.5C811.578 339.3 811.798 338.28 812.238 337.44C812.678 336.587 813.305 335.927 814.118 335.46C814.945 334.993 815.931 334.76 817.078 334.76C818.785 334.76 820.125 335.273 821.098 336.3C822.071 337.313 822.558 338.713 822.558 340.5C822.558 341.673 822.338 342.693 821.898 343.56C821.458 344.413 820.825 345.073 819.998 345.54C819.185 346.007 818.205 346.24 817.058 346.24ZM817.078 344.56C818.145 344.56 818.985 344.2 819.598 343.48C820.225 342.747 820.538 341.753 820.538 340.5C820.538 339.233 820.225 338.24 819.598 337.52C818.985 336.8 818.145 336.44 817.078 336.44C815.998 336.44 815.151 336.8 814.538 337.52C813.925 338.24 813.618 339.233 813.618 340.5C813.618 341.753 813.925 342.747 814.538 343.48C815.151 344.2 815.998 344.56 817.078 344.56ZM827.026 335V341.94C827.026 342.713 827.246 343.34 827.686 343.82C828.126 344.287 828.699 344.52 829.406 344.52C830.219 344.52 830.939 344.227 831.566 343.64C832.206 343.04 832.713 342.113 833.086 340.86L833.406 343.12C832.993 344.16 832.393 344.94 831.606 345.46C830.833 345.98 829.986 346.24 829.066 346.24C828.239 346.24 827.519 346.067 826.906 345.72C826.306 345.36 825.839 344.867 825.506 344.24C825.173 343.613 825.006 342.873 825.006 342.02V335H827.026ZM834.866 335V346H832.946L832.846 343.52V335H834.866ZM843.994 346C843.314 346 842.734 345.867 842.254 345.6C841.774 345.32 841.414 344.927 841.174 344.42C840.934 343.913 840.814 343.32 840.814 342.64V332.92L842.834 331.82V342.64C842.834 342.96 842.88 343.253 842.974 343.52C843.067 343.787 843.247 343.993 843.514 344.14C843.794 344.287 844.2 344.36 844.734 344.36H848.034V346H843.994ZM838.214 336.64V335H846.274V336.64H838.214ZM870.009 346C869.329 346 868.749 345.867 868.269 345.6C867.789 345.32 867.429 344.927 867.189 344.42C866.949 343.913 866.829 343.32 866.829 342.64V332.92L868.849 331.82V342.64C868.849 342.96 868.896 343.253 868.989 343.52C869.083 343.787 869.263 343.993 869.529 344.14C869.809 344.287 870.216 344.36 870.749 344.36H874.049V346H870.009ZM864.229 336.64V335H872.289V336.64H864.229ZM885.077 346V339.08C885.077 338.293 884.857 337.667 884.417 337.2C883.977 336.72 883.404 336.48 882.697 336.48C881.884 336.48 881.157 336.78 880.517 337.38C879.891 337.967 879.391 338.887 879.017 340.14L878.697 337.9C879.111 336.847 879.704 336.06 880.477 335.54C881.264 335.02 882.117 334.76 883.037 334.76C883.864 334.76 884.577 334.94 885.177 335.3C885.791 335.647 886.264 336.14 886.597 336.78C886.931 337.407 887.097 338.147 887.097 339V346H885.077ZM877.237 346V331.28H879.257V346H877.237ZM895.245 346.24C894.112 346.24 893.132 346.013 892.305 345.56C891.478 345.093 890.845 344.433 890.405 343.58C889.965 342.713 889.745 341.68 889.745 340.48C889.745 339.28 889.965 338.253 890.405 337.4C890.858 336.547 891.498 335.893 892.325 335.44C893.165 334.987 894.165 334.76 895.325 334.76C897.098 334.76 898.418 335.253 899.285 336.24C900.152 337.213 900.532 338.553 900.425 340.26H891.345L891.365 338.74L898.365 338.76C898.312 338.053 898.005 337.487 897.445 337.06C896.885 336.633 896.178 336.42 895.325 336.42C894.178 336.42 893.298 336.78 892.685 337.5C892.072 338.22 891.765 339.24 891.765 340.56C891.765 341.347 891.898 342.047 892.165 342.66C892.445 343.26 892.845 343.727 893.365 344.06C893.885 344.393 894.512 344.56 895.245 344.56C896.112 344.56 896.832 344.353 897.405 343.94C897.992 343.527 898.352 342.967 898.485 342.26H900.505C900.332 343.5 899.778 344.473 898.845 345.18C897.912 345.887 896.712 346.24 895.245 346.24ZM916.881 346L915.061 334.96H916.941L917.901 341.2L918.301 343.88L918.861 341.2L920.261 334.96H922.081L923.541 341.2L924.101 343.9L924.481 341.2L925.441 334.96H927.261L925.441 346H923.061L921.621 339.96L921.161 336.98L920.701 339.96L919.261 346H916.881ZM934.128 346.24C932.995 346.24 932.015 346.007 931.188 345.54C930.375 345.073 929.748 344.413 929.308 343.56C928.868 342.693 928.648 341.673 928.648 340.5C928.648 339.3 928.868 338.28 929.308 337.44C929.748 336.587 930.375 335.927 931.188 335.46C932.015 334.993 933.002 334.76 934.148 334.76C935.855 334.76 937.195 335.273 938.168 336.3C939.142 337.313 939.628 338.713 939.628 340.5C939.628 341.673 939.408 342.693 938.968 343.56C938.528 344.413 937.895 345.073 937.068 345.54C936.255 346.007 935.275 346.24 934.128 346.24ZM934.148 344.56C935.215 344.56 936.055 344.2 936.668 343.48C937.295 342.747 937.608 341.753 937.608 340.5C937.608 339.233 937.295 338.24 936.668 337.52C936.055 336.8 935.215 336.44 934.148 336.44C933.068 336.44 932.222 336.8 931.608 337.52C930.995 338.24 930.688 339.233 930.688 340.5C930.688 341.753 930.995 342.747 931.608 343.48C932.222 344.2 933.068 344.56 934.148 344.56ZM950.156 339.72V338.4C950.156 337.827 949.983 337.367 949.636 337.02C949.29 336.66 948.79 336.48 948.136 336.48C947.31 336.48 946.57 336.793 945.916 337.42C945.263 338.033 944.743 338.973 944.356 340.24L944.076 338.2C944.37 337.44 944.723 336.807 945.136 336.3C945.563 335.793 946.05 335.413 946.596 335.16C947.156 334.893 947.77 334.76 948.436 334.76C949.543 334.76 950.443 335.08 951.136 335.72C951.83 336.347 952.176 337.24 952.176 338.4V339.72H950.156ZM942.716 346V335H944.616L944.736 337.5V346H942.716ZM959.164 346V331.3H961.184V346H959.164ZM955.104 346V344.36H965.264V346H955.104ZM956.564 332.94V331.3H960.164V332.94H956.564ZM972.592 334.76C973.352 334.76 974.045 334.913 974.672 335.22C975.299 335.513 975.805 335.927 976.192 336.46V331.3H978.192V346H976.292L976.232 344.46C975.845 344.993 975.332 345.427 974.692 345.76C974.065 346.08 973.365 346.24 972.592 346.24C971.619 346.24 970.759 345.993 970.012 345.5C969.265 345.007 968.679 344.327 968.252 343.46C967.839 342.593 967.632 341.607 967.632 340.5C967.632 339.38 967.839 338.387 968.252 337.52C968.679 336.653 969.265 335.98 970.012 335.5C970.759 335.007 971.619 334.76 972.592 334.76ZM973.032 344.54C973.752 344.54 974.392 344.34 974.952 343.94C975.512 343.527 975.925 342.973 976.192 342.28V338.7C975.925 337.993 975.512 337.447 974.952 337.06C974.392 336.66 973.752 336.46 973.032 336.46C972.365 336.46 971.779 336.633 971.272 336.98C970.765 337.313 970.365 337.787 970.072 338.4C969.792 339 969.652 339.7 969.652 340.5C969.652 341.287 969.792 341.987 970.072 342.6C970.365 343.2 970.765 343.673 971.272 344.02C971.779 344.367 972.365 344.54 973.032 344.54ZM400.808 369.24C399.675 369.24 398.695 369.007 397.868 368.54C397.055 368.073 396.428 367.413 395.988 366.56C395.548 365.693 395.328 364.673 395.328 363.5C395.328 362.3 395.548 361.28 395.988 360.44C396.428 359.587 397.055 358.927 397.868 358.46C398.695 357.993 399.681 357.76 400.828 357.76C402.535 357.76 403.875 358.273 404.848 359.3C405.821 360.313 406.308 361.713 406.308 363.5C406.308 364.673 406.088 365.693 405.648 366.56C405.208 367.413 404.575 368.073 403.748 368.54C402.935 369.007 401.955 369.24 400.808 369.24ZM400.828 367.56C401.895 367.56 402.735 367.2 403.348 366.48C403.975 365.747 404.288 364.753 404.288 363.5C404.288 362.233 403.975 361.24 403.348 360.52C402.735 359.8 401.895 359.44 400.828 359.44C399.748 359.44 398.901 359.8 398.288 360.52C397.675 361.24 397.368 362.233 397.368 363.5C397.368 364.753 397.675 365.747 398.288 366.48C398.901 367.2 399.748 367.56 400.828 367.56ZM412.416 369V356.76C412.416 356.08 412.543 355.487 412.796 354.98C413.049 354.473 413.423 354.073 413.916 353.78C414.423 353.487 415.043 353.34 415.776 353.34H419.056V354.98H416.376C416.016 354.98 415.683 355.027 415.376 355.12C415.083 355.213 414.849 355.387 414.676 355.64C414.516 355.88 414.436 356.233 414.436 356.7V369H412.416ZM409.816 359.64V358H417.896V359.64H409.816ZM408.916 369V367.36H418.836V369H408.916ZM440.752 369C440.072 369 439.492 368.867 439.012 368.6C438.532 368.32 438.172 367.927 437.932 367.42C437.692 366.913 437.572 366.32 437.572 365.64V355.92L439.592 354.82V365.64C439.592 365.96 439.638 366.253 439.732 366.52C439.825 366.787 440.005 366.993 440.272 367.14C440.552 367.287 440.958 367.36 441.492 367.36H444.792V369H440.752ZM434.972 359.64V358H443.032V359.64H434.972ZM452.979 369.24C451.846 369.24 450.866 369.013 450.039 368.56C449.213 368.093 448.579 367.433 448.139 366.58C447.699 365.713 447.479 364.68 447.479 363.48C447.479 362.28 447.699 361.253 448.139 360.4C448.593 359.547 449.233 358.893 450.059 358.44C450.899 357.987 451.899 357.76 453.059 357.76C454.833 357.76 456.153 358.253 457.019 359.24C457.886 360.213 458.266 361.553 458.159 363.26H449.079L449.099 361.74L456.099 361.76C456.046 361.053 455.739 360.487 455.179 360.06C454.619 359.633 453.913 359.42 453.059 359.42C451.913 359.42 451.033 359.78 450.419 360.5C449.806 361.22 449.499 362.24 449.499 363.56C449.499 364.347 449.633 365.047 449.899 365.66C450.179 366.26 450.579 366.727 451.099 367.06C451.619 367.393 452.246 367.56 452.979 367.56C453.846 367.56 454.566 367.353 455.139 366.94C455.726 366.527 456.086 365.967 456.219 365.26H458.239C458.066 366.5 457.513 367.473 456.579 368.18C455.646 368.887 454.446 369.24 452.979 369.24ZM466.187 369.24C465.054 369.24 464.067 369.007 463.227 368.54C462.401 368.06 461.761 367.393 461.307 366.54C460.854 365.673 460.627 364.66 460.627 363.5C460.627 362.313 460.861 361.293 461.327 360.44C461.794 359.573 462.447 358.913 463.287 358.46C464.127 357.993 465.107 357.76 466.227 357.76C467.121 357.76 467.921 357.927 468.627 358.26C469.347 358.58 469.927 359.04 470.367 359.64C470.821 360.24 471.081 360.953 471.147 361.78H469.127C469.021 361.033 468.701 360.46 468.167 360.06C467.647 359.647 467.001 359.44 466.227 359.44C465.507 359.44 464.881 359.607 464.347 359.94C463.814 360.26 463.401 360.72 463.107 361.32C462.814 361.92 462.667 362.647 462.667 363.5C462.667 364.767 462.987 365.76 463.627 366.48C464.281 367.2 465.134 367.56 466.187 367.56C466.667 367.56 467.114 367.467 467.527 367.28C467.941 367.093 468.294 366.827 468.587 366.48C468.881 366.12 469.081 365.707 469.187 365.24H471.227C471.094 366.067 470.787 366.78 470.307 367.38C469.841 367.967 469.247 368.427 468.527 368.76C467.821 369.08 467.041 369.24 466.187 369.24ZM481.835 369V362.08C481.835 361.293 481.615 360.667 481.175 360.2C480.735 359.72 480.162 359.48 479.455 359.48C478.642 359.48 477.915 359.78 477.275 360.38C476.648 360.967 476.148 361.887 475.775 363.14L475.455 360.9C475.868 359.847 476.462 359.06 477.235 358.54C478.022 358.02 478.875 357.76 479.795 357.76C480.622 357.76 481.335 357.94 481.935 358.3C482.548 358.647 483.022 359.14 483.355 359.78C483.688 360.407 483.855 361.147 483.855 362V369H481.835ZM473.995 369V354.28H476.015V369H473.995ZM494.843 369V362.06C494.843 361.287 494.623 360.667 494.183 360.2C493.743 359.72 493.169 359.48 492.463 359.48C491.649 359.48 490.923 359.78 490.283 360.38C489.656 360.967 489.156 361.887 488.783 363.14L488.463 360.88C488.876 359.84 489.469 359.06 490.243 358.54C491.029 358.02 491.883 357.76 492.803 357.76C493.629 357.76 494.343 357.94 494.943 358.3C495.556 358.647 496.029 359.133 496.363 359.76C496.696 360.387 496.863 361.127 496.863 361.98V369H494.843ZM487.003 369V358H488.923L489.023 360.48V369H487.003ZM504.871 369.24C503.737 369.24 502.757 369.007 501.931 368.54C501.117 368.073 500.491 367.413 500.051 366.56C499.611 365.693 499.391 364.673 499.391 363.5C499.391 362.3 499.611 361.28 500.051 360.44C500.491 359.587 501.117 358.927 501.931 358.46C502.757 357.993 503.744 357.76 504.891 357.76C506.597 357.76 507.937 358.273 508.911 359.3C509.884 360.313 510.371 361.713 510.371 363.5C510.371 364.673 510.151 365.693 509.711 366.56C509.271 367.413 508.637 368.073 507.811 368.54C506.997 369.007 506.017 369.24 504.871 369.24ZM504.891 367.56C505.957 367.56 506.797 367.2 507.411 366.48C508.037 365.747 508.351 364.753 508.351 363.5C508.351 362.233 508.037 361.24 507.411 360.52C506.797 359.8 505.957 359.44 504.891 359.44C503.811 359.44 502.964 359.8 502.351 360.52C501.737 361.24 501.431 362.233 501.431 363.5C501.431 364.753 501.737 365.747 502.351 366.48C502.964 367.2 503.811 367.56 504.891 367.56ZM516.898 369V354.3H518.918V369H516.898ZM512.838 369V367.36H522.998V369H512.838ZM514.298 355.94V354.3H517.898V355.94H514.298ZM530.886 369.24C529.753 369.24 528.773 369.007 527.946 368.54C527.133 368.073 526.506 367.413 526.066 366.56C525.626 365.693 525.406 364.673 525.406 363.5C525.406 362.3 525.626 361.28 526.066 360.44C526.506 359.587 527.133 358.927 527.946 358.46C528.773 357.993 529.76 357.76 530.906 357.76C532.613 357.76 533.953 358.273 534.926 359.3C535.9 360.313 536.386 361.713 536.386 363.5C536.386 364.673 536.166 365.693 535.726 366.56C535.286 367.413 534.653 368.073 533.826 368.54C533.013 369.007 532.033 369.24 530.886 369.24ZM530.906 367.56C531.973 367.56 532.813 367.2 533.426 366.48C534.053 365.747 534.366 364.753 534.366 363.5C534.366 362.233 534.053 361.24 533.426 360.52C532.813 359.8 531.973 359.44 530.906 359.44C529.826 359.44 528.98 359.8 528.366 360.52C527.753 361.24 527.446 362.233 527.446 363.5C527.446 364.753 527.753 365.747 528.366 366.48C528.98 367.2 529.826 367.56 530.906 367.56ZM546.974 359.58L547.034 358H548.934V367.8C548.934 369.427 548.494 370.667 547.614 371.52C546.747 372.373 545.434 372.8 543.674 372.8C542.701 372.8 541.854 372.667 541.134 372.4C540.427 372.133 539.867 371.733 539.454 371.2C539.054 370.68 538.827 370.027 538.774 369.24H540.874C540.941 369.84 541.207 370.3 541.674 370.62C542.154 370.953 542.854 371.12 543.774 371.12C544.814 371.12 545.594 370.853 546.114 370.32C546.647 369.787 546.914 369.027 546.914 368.04V366.58C546.541 367.14 546.041 367.58 545.414 367.9C544.801 368.22 544.114 368.38 543.354 368.38C542.407 368.38 541.567 368.153 540.834 367.7C540.114 367.247 539.547 366.62 539.134 365.82C538.721 365.007 538.514 364.093 538.514 363.08C538.514 361.987 538.727 361.047 539.154 360.26C539.581 359.46 540.167 358.847 540.914 358.42C541.661 357.98 542.507 357.76 543.454 357.76C544.214 357.76 544.901 357.927 545.514 358.26C546.127 358.593 546.614 359.033 546.974 359.58ZM543.794 366.8C544.514 366.8 545.154 366.593 545.714 366.18C546.287 365.753 546.687 365.18 546.914 364.46V361.68C546.687 360.96 546.287 360.393 545.714 359.98C545.154 359.553 544.514 359.34 543.794 359.34C543.141 359.34 542.567 359.5 542.074 359.82C541.594 360.14 541.214 360.58 540.934 361.14C540.667 361.687 540.534 362.327 540.534 363.06C540.534 363.78 540.667 364.427 540.934 365C541.214 365.56 541.594 366 542.074 366.32C542.567 366.64 543.141 366.8 543.794 366.8ZM555.902 363.44L556.942 366.18L557.982 363.42L560.282 358H562.382L557.282 370.02C556.975 370.727 556.642 371.28 556.282 371.68C555.935 372.093 555.542 372.38 555.102 372.54C554.662 372.713 554.149 372.8 553.562 372.8H551.602V371.16H553.422C553.769 371.16 554.062 371.08 554.302 370.92C554.555 370.773 554.782 370.547 554.982 370.24C555.182 369.947 555.382 369.56 555.582 369.08L555.882 368.36L551.502 358H553.602L555.902 363.44ZM568.67 369V366.54H571.15V369L569.77 372.54H567.97L568.63 371.36L570.07 368.98L568.67 369ZM711.756 369V366.54H714.236V369L712.856 372.54H711.056L711.716 371.36L713.156 368.98L711.756 369ZM741.911 369L741.831 366.5V361.8C741.831 361.013 741.571 360.4 741.051 359.96C740.545 359.507 739.845 359.28 738.951 359.28C738.085 359.28 737.378 359.48 736.831 359.88C736.285 360.267 735.985 360.807 735.931 361.5H733.951C734.018 360.713 734.271 360.047 734.711 359.5C735.151 358.94 735.738 358.513 736.471 358.22C737.205 357.913 738.051 357.76 739.011 357.76C739.998 357.76 740.851 357.927 741.571 358.26C742.291 358.58 742.845 359.047 743.231 359.66C743.631 360.273 743.831 361.02 743.831 361.9V369H741.911ZM737.931 369.24C737.211 369.24 736.578 369.113 736.031 368.86C735.485 368.593 735.058 368.22 734.751 367.74C734.445 367.247 734.291 366.673 734.291 366.02C734.291 364.887 734.725 364.007 735.591 363.38C736.471 362.753 737.698 362.44 739.271 362.44H742.091V363.94H739.191C738.285 363.94 737.571 364.113 737.051 364.46C736.545 364.807 736.291 365.293 736.291 365.92C736.291 366.44 736.471 366.847 736.831 367.14C737.205 367.433 737.705 367.58 738.331 367.58C739.131 367.58 739.838 367.367 740.451 366.94C741.078 366.5 741.585 365.9 741.971 365.14L742.191 366.62C741.845 367.46 741.311 368.107 740.591 368.56C739.871 369.013 738.985 369.24 737.931 369.24ZM754.999 369V362.06C754.999 361.287 754.779 360.667 754.339 360.2C753.899 359.72 753.326 359.48 752.619 359.48C751.806 359.48 751.079 359.78 750.439 360.38C749.812 360.967 749.312 361.887 748.939 363.14L748.619 360.88C749.032 359.84 749.626 359.06 750.399 358.54C751.186 358.02 752.039 357.76 752.959 357.76C753.786 357.76 754.499 357.94 755.099 358.3C755.712 358.647 756.186 359.133 756.519 359.76C756.852 360.387 757.019 361.127 757.019 361.98V369H754.999ZM747.159 369V358H749.079L749.179 360.48V369H747.159ZM764.467 357.76C765.227 357.76 765.92 357.913 766.547 358.22C767.174 358.513 767.68 358.927 768.067 359.46V354.3H770.067V369H768.167L768.107 367.46C767.72 367.993 767.207 368.427 766.567 368.76C765.94 369.08 765.24 369.24 764.467 369.24C763.494 369.24 762.634 368.993 761.887 368.5C761.14 368.007 760.554 367.327 760.127 366.46C759.714 365.593 759.507 364.607 759.507 363.5C759.507 362.38 759.714 361.387 760.127 360.52C760.554 359.653 761.14 358.98 761.887 358.5C762.634 358.007 763.494 357.76 764.467 357.76ZM764.907 367.54C765.627 367.54 766.267 367.34 766.827 366.94C767.387 366.527 767.8 365.973 768.067 365.28V361.7C767.8 360.993 767.387 360.447 766.827 360.06C766.267 359.66 765.627 359.46 764.907 359.46C764.24 359.46 763.654 359.633 763.147 359.98C762.64 360.313 762.24 360.787 761.947 361.4C761.667 362 761.527 362.7 761.527 363.5C761.527 364.287 761.667 364.987 761.947 365.6C762.24 366.2 762.64 366.673 763.147 367.02C763.654 367.367 764.24 367.54 764.907 367.54Z" fill="#D9D9D9"/>
<g clip-path="url(#clip0_1_2)">
<path d="M745.019 545.5L780.634 509.995L745.019 474.489L755.877 463.667L802.35 509.995L755.877 556.322L745.019 545.5Z" fill="#E6E6E6"/>
<path d="M657.793 495.751H643.315V510.228H657.793V495.751Z" fill="#E6E6E6"/>
<path d="M715.992 495.751H701.514V510.228H715.992V495.751Z" fill="#E6E6E6"/>
<path d="M686.892 495.751H672.415V510.228H686.892V495.751Z" fill="#E6E6E6"/>
<path d="M623.698 545.139L588.048 509.633L623.662 474.127L612.804 463.305L566.368 509.633L612.84 555.961L623.698 545.139Z" fill="#E6E6E6"/>
<path d="M745.019 538.624L780.634 503.118L745.019 467.612L755.877 456.79L802.35 503.118L755.877 549.446L745.019 538.624Z" fill="#E31B6D"/>
<path d="M643.315 505.651H657.793V491.174H643.315L643.315 505.651ZM715.992 491.174H701.514V505.651H715.992V491.174ZM672.415 505.651H686.892V491.174H672.415V505.651Z" fill="#E31B6D"/>
<path d="M623.698 538.262L588.048 502.756L623.662 467.25L612.804 456.428L566.368 502.756L612.84 549.084L623.698 538.262Z" fill="#E31B6D"/>
<path d="M449.357 654.028L457.461 655.988L468.876 625.66L456.914 622.768L449.357 654.028Z" fill="#A0616A"/>
<path d="M445.519 661.306L448.008 651.012L463.865 654.845C466.533 655.493 468.836 657.173 470.267 659.517C471.698 661.861 472.141 664.677 471.499 667.347L471.444 667.573L445.519 661.306Z" fill="#2F2E41"/>
<path d="M485.235 659.549L493.573 659.549L497.539 627.388L485.233 627.389L485.235 659.549Z" fill="#A0616A"/>
<path d="M483.215 656.934L499.528 656.933C502.275 656.933 504.91 658.024 506.853 659.967C508.795 661.909 509.886 664.544 509.886 667.291V667.524L483.215 667.525L483.215 656.934Z" fill="#2F2E41"/>
<path d="M483.278 648.421L484.649 598.387L482.802 578.099L479.199 593.712L463.455 645.055L449.882 641.483L465.601 586.123L462.187 550.615L471.996 544.31L472.128 544.334L505.641 550.511L497.546 646.994L483.278 648.421Z" fill="#2F2E41"/>
<path d="M496.542 557.477C493.843 557.477 490.687 556.607 487.173 554.127C475.93 546.193 462.525 554.728 462.391 554.815L461.846 555.169L461.865 554.52C461.879 554.058 463.225 508.107 463.225 493.32C463.225 478.044 473.192 466.89 476.247 463.835C479.245 460.837 481.768 460.903 484.962 460.986C485.512 461 486.086 461.015 486.689 461.015C490.862 461.015 494.92 465.025 495.091 465.196L495.172 465.277L495.187 465.392L506.768 552.587L506.679 552.699C506.626 552.768 502.823 557.477 496.542 557.477Z" fill="#CCCCCC"/>
<path d="M503.119 447.176C507.544 439.081 504.569 428.932 496.474 424.507C488.379 420.082 478.23 423.057 473.805 431.151C469.379 439.246 472.354 449.396 480.449 453.821C488.544 458.246 498.694 455.271 503.119 447.176Z" fill="#A0616A"/>
<path d="M514.033 571.438C513.242 570.826 512.596 570.048 512.139 569.158C511.682 568.269 511.426 567.29 511.388 566.291C511.35 565.292 511.532 564.297 511.92 563.376C512.308 562.454 512.894 561.629 513.636 560.959L504.15 538.583L516.57 540.869L523.674 561.767C524.718 563.088 525.241 564.746 525.144 566.426C525.047 568.107 524.338 569.693 523.149 570.885C521.961 572.077 520.376 572.792 518.696 572.894C517.016 572.996 515.357 572.478 514.033 571.438Z" fill="#A0616A"/>
<path d="M511.346 558.701L494.205 523.734L486.689 497.417L486.695 474.554C486.712 474.464 488.479 465.571 495.028 466.186C500.966 466.761 504.164 469.665 505.722 475.895C507.045 481.188 505.235 496.89 505.06 498.372C506.209 501.096 523.448 542.17 520.594 547.116C520.487 547.309 520.332 547.47 520.143 547.584L523.197 554.033L511.346 558.701Z" fill="#CCCCCC"/>
<path d="M486.326 445.457C488.328 445.717 489.839 443.669 490.539 441.775C491.24 439.881 491.774 437.676 493.514 436.653C495.893 435.255 498.936 436.936 501.656 436.475C504.728 435.955 506.725 432.699 506.881 429.588C507.038 426.476 505.8 423.483 504.585 420.615L504.161 424.18C504.217 422.972 503.963 421.769 503.422 420.687C502.881 419.605 502.072 418.68 501.071 418L501.618 423.232C501.501 422.51 501.244 421.818 500.859 421.196C500.475 420.574 499.972 420.034 499.378 419.607C498.785 419.181 498.113 418.875 497.401 418.709C496.689 418.542 495.951 418.518 495.23 418.637L495.316 421.754C491.768 421.332 488.189 420.91 484.631 421.231C481.073 421.553 477.49 422.678 474.793 425.022C470.759 428.527 469.285 434.299 469.78 439.621C470.275 444.942 472.471 449.941 474.761 454.77C475.337 455.985 476.133 457.356 477.469 457.511C478.669 457.65 479.767 456.647 480.141 455.498C480.428 454.319 480.417 453.086 480.108 451.913C479.771 450.119 479.345 448.286 479.662 446.488C479.98 444.691 481.273 442.915 483.085 442.695C484.896 442.475 486.75 444.545 485.879 446.149L486.326 445.457Z" fill="#2F2E41"/>
<path d="M899.785 569.211C899.227 568.575 898.816 567.825 898.58 567.014C898.343 566.202 898.288 565.348 898.417 564.513C898.547 563.677 898.858 562.881 899.328 562.178C899.799 561.476 900.418 560.886 901.141 560.448L896.866 540.349L906.809 544.244L909.344 562.734C909.998 563.998 910.165 565.458 909.815 566.838C909.464 568.217 908.62 569.42 907.441 570.218C906.263 571.017 904.833 571.355 903.422 571.169C902.011 570.984 900.717 570.287 899.785 569.211Z" fill="#FFB8B8"/>
<path d="M898.656 553.528L898.602 553.331C893.228 533.451 887.672 512.9 880.888 490.524L880.844 490.377L880.994 490.29C884.774 488.084 890.457 488.231 894.212 490.632C895.911 491.726 897.234 493.317 897.999 495.188C898.765 497.059 898.937 499.12 898.492 501.092L903.439 526.888C905.451 535.32 907.532 544.047 909.522 552.653L909.578 552.897L909.27 552.917C905.648 553.147 901.905 553.385 898.907 553.517L898.656 553.528Z" fill="#CCCCCC"/>
<path d="M852.977 660.524H845.927L842.572 633.331H852.977V660.524Z" fill="#FFB8B8"/>
<path d="M854.776 667.358H832.044V667.07C832.046 664.724 832.979 662.475 834.638 660.816C836.297 659.158 838.546 658.225 840.892 658.222H854.776L854.776 667.358Z" fill="#2F2E41"/>
<path d="M919.41 654.708L912.692 656.848L901.24 631.958L911.154 628.799L919.41 654.708Z" fill="#FFB8B8"/>
<path d="M901.539 667.575L901.452 667.301C900.742 665.065 900.948 662.639 902.025 660.555C903.102 658.471 904.961 656.899 907.196 656.184L920.424 651.969L923.198 660.673L901.539 667.575Z" fill="#2F2E41"/>
<path d="M883.727 472.306C891.527 472.306 897.851 465.983 897.851 458.182C897.851 450.382 891.527 444.059 883.727 444.059C875.927 444.059 869.603 450.382 869.603 458.182C869.603 465.983 875.927 472.306 883.727 472.306Z" fill="#FFB8B8"/>
<path d="M890.068 455.565C890.149 449.868 887.764 444.226 884.078 441.39C882.341 440.013 880.18 439.282 877.964 439.322C875.748 439.361 873.614 440.168 871.926 441.605C868.297 444.57 866.025 450.294 866.217 455.986C874.349 456.009 882.48 456.032 890.068 455.565Z" fill="#2F2E41"/>
<path d="M857.002 651.771L856.72 651.743C850.586 651.141 844.244 650.519 838.25 650.448L837.924 650.444L837.969 650.121C839.389 639.836 839.991 629.144 840.573 618.803C841.148 608.592 841.742 598.035 843.127 588.007C843.713 585.322 844.283 582.669 844.852 580.025C849.559 558.149 854.006 537.485 863.183 517.031L863.27 516.838L863.48 516.863C872.091 517.905 880.365 521.047 886.778 525.709L886.903 525.799L886.896 525.953C886.773 529.13 886.645 532.414 886.834 535.406C889.745 539.45 891.673 544.117 892.467 549.036C893.261 553.955 892.899 558.992 891.408 563.746C893.933 572.185 896.544 580.909 899.208 589.514C905.676 607.248 912.369 625.599 919.231 644.202L919.343 644.507L919.027 644.581C914.09 645.74 908.998 646.935 903.974 647.399L903.784 647.416L903.694 647.248C890.882 623.407 880.464 598.355 872.59 572.46C870.876 577.688 868.406 582.408 866.013 586.979C863.725 591.137 861.711 595.44 859.986 599.861C858.927 608.557 858.646 617.977 858.374 627.088C858.117 635.702 857.875 643.838 857.034 651.488L857.002 651.771Z" fill="#2F2E41"/>
<path d="M878.905 441.651C885.027 440.332 891.799 441.587 896.607 445.717C901.415 449.848 903.856 456.994 901.881 463.122C899.906 469.25 893.2 473.562 887.137 471.98C888.874 467.085 886.919 461.075 882.673 458.255C877.638 454.911 876.252 446.928 878.905 441.651Z" fill="#2F2E41"/>
<path d="M886.338 526.323L886.114 526.221C878.304 522.658 870.646 519.924 863.471 517.43L863.251 517.382L863.251 516.744L863.393 516.794C863.423 516.728 863.457 516.652 863.491 516.577C863.589 516.361 863.656 516.213 863.713 516.115L863.711 516.114C864.31 514.895 864.785 513.718 865.245 512.578C865.719 511.403 866.209 510.189 866.842 508.905C865.308 507.366 864.257 505.412 863.82 503.284C863.384 501.155 863.579 498.946 864.383 496.927C865.968 493.17 870.009 490.245 874.256 489.759C875.812 485.476 879.279 476.476 879.279 476.476C879.279 476.476 886.569 476.275 889.501 475.903L889.55 475.897L889.599 475.908C896 477.31 901.343 483.367 902.594 490.637C903.649 496.773 902.047 503.791 898.081 510.399C896.047 513.63 893.797 516.721 891.348 519.651C889.562 521.884 887.875 523.993 886.473 526.118L886.338 526.323Z" fill="#CCCCCC"/>
<path d="M900.475 450.021C896.189 449.381 892.824 445 893.311 440.695C893.799 436.389 898.057 432.871 902.377 433.205C906.697 433.539 910.365 437.67 910.184 441.999C910.004 446.328 905.946 450.837 900.475 450.021Z" fill="#2F2E41"/>
<path d="M899.806 447.229C895.52 446.589 892.155 442.208 892.642 437.903C892.855 436.438 893.435 435.052 894.328 433.872C895.221 432.692 896.398 431.757 897.75 431.155C894.294 431.911 891.32 434.923 890.917 438.478C890.43 442.783 893.795 447.164 898.08 447.804C899.677 448.055 901.313 447.826 902.78 447.147C901.801 447.352 900.794 447.38 899.806 447.229Z" fill="#2F2E41"/>
<path d="M816.677 523.123C817.091 522.385 817.661 521.747 818.347 521.254C819.034 520.761 819.82 520.424 820.651 520.268C821.482 520.111 822.337 520.139 823.156 520.349C823.975 520.559 824.738 520.945 825.391 521.482L842.918 510.754L842.558 521.427L825.969 529.978C824.995 531.015 823.674 531.66 822.257 531.789C820.839 531.918 819.424 531.522 818.278 530.677C817.133 529.832 816.337 528.596 816.042 527.204C815.747 525.812 815.973 524.359 816.677 523.123Z" fill="#FFB8B8"/>
<path d="M831.088 516.833L831.256 516.717C848.209 505.025 865.735 492.939 884.572 479.089L884.695 478.998L884.828 479.11C888.167 481.939 889.922 487.346 888.91 491.686C888.444 493.654 887.385 495.43 885.876 496.776C884.366 498.121 882.48 498.97 880.473 499.208L857.8 512.467C850.52 517.173 842.984 522.043 835.533 526.787L835.322 526.921L835.201 526.637C833.777 523.298 832.305 519.849 831.182 517.066L831.088 516.833Z" fill="#CCCCCC"/>
<path d="M594.669 668H375.575C375.423 668 375.276 667.939 375.168 667.832C375.061 667.724 375 667.577 375 667.425C375 667.272 375.061 667.126 375.168 667.018C375.276 666.91 375.423 666.85 375.575 666.85H594.669C594.821 666.85 594.968 666.91 595.075 667.018C595.183 667.126 595.244 667.272 595.244 667.425C595.244 667.577 595.183 667.724 595.075 667.832C594.968 667.939 594.821 668 594.669 668Z" fill="#3F3D56"/>
<path d="M982.827 668H763.733C763.581 668 763.434 667.939 763.327 667.832C763.219 667.724 763.158 667.577 763.158 667.425C763.158 667.272 763.219 667.126 763.327 667.018C763.434 666.91 763.581 666.85 763.733 666.85H982.827C982.979 666.85 983.126 666.91 983.234 667.018C983.341 667.126 983.402 667.272 983.402 667.425C983.402 667.577 983.341 667.724 983.234 667.832C983.126 667.939 982.979 668 982.827 668Z" fill="#3F3D56"/>
</g>
<defs>
<filter id="filter0_d_1_2" x="169.28" y="13" width="20.2097" height="36.6623" filterUnits="userSpaceOnUse" color-interpolation-filters="sRGB">
<feFlood flood-opacity="0" result="BackgroundImageFix"/>
<feColorMatrix in="SourceAlpha" type="matrix" values="0 0 0 0 0 0 0 0 0 0 0 0 0 0 0 0 0 0 127 0" result="hardAlpha"/>
<feOffset dy="4"/>
<feComposite in2="hardAlpha" operator="out"/>
<feColorMatrix type="matrix" values="0 0 0 0 0 0 0 0 0 0 0 0 0 0 0 0 0 0 0.25 0"/>
<feBlend mode="normal" in2="BackgroundImageFix" result="effect1_dropShadow_1_2"/>
<feBlend mode="normal" in="SourceGraphic" in2="effect1_dropShadow_1_2" result="shape"/>
</filter>
<filter id="filter1_d_1_2" x="158" y="25.3379" width="20.2097" height="36.6621" filterUnits="userSpaceOnUse" color-interpolation-filters="sRGB">
<feFlood flood-opacity="0" result="BackgroundImageFix"/>
<feColorMatrix in="SourceAlpha" type="matrix" values="0 0 0 0 0 0 0 0 0 0 0 0 0 0 0 0 0 0 127 0" result="hardAlpha"/>
<feOffset dy="4"/>
<feComposite in2="hardAlpha" operator="out"/>
<feColorMatrix type="matrix" values="0 0 0 0 0 0 0 0 0 0 0 0 0 0 0 0 0 0 0.25 0"/>
<feBlend mode="normal" in2="BackgroundImageFix" result="effect1_dropShadow_1_2"/>
<feBlend mode="normal" in="SourceGraphic" in2="effect1_dropShadow_1_2" result="shape"/>
</filter>
<clipPath id="clip0_1_2">
<rect width="608.402" height="250" fill="white" transform="translate(375 418)"/>
</clipPath>
</defs>
</svg>
