<svg width="609" height="250" viewBox="0 0 609 250" fill="none" xmlns="http://www.w3.org/2000/svg">
<g clip-path="url(#clip0_16_1599)">
<path d="M370.019 127.5L405.634 91.9947L370.019 56.4888L380.877 45.667L427.35 91.9947L380.877 138.322L370.019 127.5Z" fill="#E6E6E6"/>
<path d="M282.793 77.7505H268.315V92.228H282.793V77.7505Z" fill="#E6E6E6"/>
<path d="M340.992 77.7505H326.514V92.228H340.992V77.7505Z" fill="#E6E6E6"/>
<path d="M311.892 77.7505H297.415V92.228H311.892V77.7505Z" fill="#E6E6E6"/>
<path d="M248.698 127.139L213.048 91.6329L248.662 56.1271L237.804 45.3053L191.368 91.6329L237.84 137.961L248.698 127.139Z" fill="#E6E6E6"/>
<path d="M370.019 120.624L405.634 85.1182L370.019 49.6118L380.877 38.7899L427.35 85.1182L380.877 131.446L370.019 120.624Z" fill="#E31B6D"/>
<path d="M268.315 87.6514H282.793V73.174H268.315L268.315 87.6514ZM340.992 73.174H326.514V87.6514H340.992V73.174ZM297.415 87.6514H311.892V73.174H297.415V87.6514Z" fill="#E31B6D"/>
<path d="M248.698 120.262L213.048 84.7559L248.662 49.2501L237.804 38.4282L191.368 84.7559L237.84 131.084L248.698 120.262Z" fill="#E31B6D"/>
<path d="M74.3567 236.028L82.4615 237.988L93.8756 207.66L81.914 204.768L74.3567 236.028Z" fill="#A0616A"/>
<path d="M70.5195 243.306L73.0082 233.012L88.8649 236.845C91.5334 237.493 93.8358 239.173 95.2669 241.517C96.6981 243.861 97.1411 246.677 96.4988 249.347L96.4439 249.573L70.5195 243.306Z" fill="#2F2E41"/>
<path d="M110.235 241.549L118.573 241.549L122.539 209.388L110.233 209.389L110.235 241.549Z" fill="#A0616A"/>
<path d="M108.215 238.934L124.528 238.933C127.275 238.933 129.91 240.024 131.853 241.967C133.795 243.909 134.886 246.544 134.886 249.291V249.524L108.215 249.525L108.215 238.934Z" fill="#2F2E41"/>
<path d="M108.278 230.421L109.649 180.387L107.802 160.099L104.199 175.712L88.4547 227.055L74.8817 223.483L90.6012 168.123L87.187 132.615L96.9961 126.31L97.1284 126.334L130.641 132.511L122.546 228.994L108.278 230.421Z" fill="#2F2E41"/>
<path d="M121.542 139.477C118.843 139.477 115.687 138.607 112.173 136.127C100.93 128.193 87.5249 136.728 87.3906 136.815L86.8463 137.169L86.8654 136.52C86.879 136.058 88.2255 90.1067 88.2255 75.3204C88.2255 60.0439 98.1922 48.89 101.247 45.8355C104.245 42.8368 106.768 42.9032 109.962 42.9862C110.512 43.0002 111.086 43.0154 111.689 43.0154C115.862 43.0154 119.92 47.025 120.091 47.1957L120.172 47.2774L120.187 47.3916L131.768 134.587L131.679 134.699C131.626 134.768 127.823 139.477 121.542 139.477Z" fill="#CCCCCC"/>
<path d="M128.119 29.176C132.544 21.0811 129.569 10.9317 121.474 6.50668C113.379 2.08163 103.23 5.05659 98.8045 13.1515C94.3795 21.2463 97.3545 31.3957 105.449 35.8208C113.544 40.2458 123.694 37.2709 128.119 29.176Z" fill="#A0616A"/>
<path d="M139.033 153.438C138.242 152.826 137.596 152.048 137.139 151.158C136.682 150.269 136.426 149.29 136.388 148.291C136.35 147.292 136.532 146.297 136.92 145.376C137.308 144.454 137.894 143.629 138.636 142.959L129.15 120.583L141.57 122.869L148.674 143.767C149.718 145.088 150.241 146.746 150.144 148.426C150.047 150.107 149.338 151.693 148.149 152.885C146.961 154.077 145.376 154.792 143.696 154.894C142.016 154.996 140.357 154.478 139.033 153.438Z" fill="#A0616A"/>
<path d="M136.346 140.701L119.205 105.734L111.689 79.417L111.695 56.5544C111.712 56.4641 113.479 47.5709 120.028 48.186C125.966 48.7611 129.164 51.6648 130.722 57.8954C132.045 63.1881 130.235 78.8903 130.06 80.372C131.209 83.0964 148.448 124.17 145.594 129.116C145.487 129.309 145.332 129.47 145.143 129.584L148.197 136.033L136.346 140.701Z" fill="#CCCCCC"/>
<path d="M111.326 27.4569C113.328 27.7175 114.839 25.6687 115.539 23.7749C116.24 21.881 116.774 19.6762 118.514 18.6531C120.893 17.2555 123.936 18.9365 126.656 18.4754C129.728 17.9546 131.725 14.6993 131.881 11.5877C132.038 8.47615 130.8 5.48349 129.585 2.61467L129.161 6.17997C129.217 4.9716 128.963 3.76889 128.422 2.68688C127.881 1.60487 127.072 0.679748 126.071 7.62939e-06L126.618 5.23153C126.501 4.50976 126.244 3.81808 125.859 3.19617C125.475 2.57425 124.972 2.03435 124.378 1.60747C123.785 1.18059 123.113 0.875117 122.401 0.708588C121.689 0.542059 120.951 0.517749 120.23 0.637058L120.316 3.7542C116.768 3.33233 113.189 2.90987 109.631 3.23127C106.073 3.55267 102.49 4.67848 99.7928 7.02187C95.7588 10.5272 94.2854 16.2992 94.7801 21.6206C95.2747 26.9419 97.4713 31.9409 99.7607 36.77C100.337 37.985 101.133 39.3561 102.469 39.5108C103.669 39.6499 104.767 38.6467 105.141 37.4976C105.428 36.3185 105.417 35.0864 105.108 33.9127C104.771 32.1191 104.345 30.2857 104.662 28.4884C104.98 26.6911 106.273 24.915 108.085 24.6948C109.896 24.4745 111.75 26.5455 110.879 28.1493L111.326 27.4569Z" fill="#2F2E41"/>
<path d="M524.785 151.211C524.227 150.575 523.816 149.825 523.58 149.014C523.343 148.202 523.288 147.348 523.417 146.513C523.547 145.677 523.858 144.881 524.328 144.178C524.799 143.476 525.418 142.886 526.141 142.448L521.866 122.349L531.809 126.244L534.344 144.734C534.998 145.998 535.165 147.458 534.815 148.838C534.464 150.217 533.62 151.42 532.441 152.218C531.263 153.017 529.833 153.355 528.422 153.169C527.011 152.984 525.717 152.287 524.785 151.211Z" fill="#FFB8B8"/>
<path d="M523.656 135.528L523.602 135.331C518.228 115.451 512.672 94.8999 505.888 72.524L505.844 72.3775L505.994 72.2902C509.774 70.084 515.457 70.2309 519.212 72.6316C520.911 73.7263 522.234 75.3169 522.999 77.188C523.765 79.0591 523.937 81.1203 523.492 83.0925L528.439 108.888C530.451 117.32 532.532 126.047 534.522 134.653L534.578 134.897L534.27 134.917C530.648 135.147 526.905 135.385 523.907 135.517L523.656 135.528Z" fill="#CCCCCC"/>
<path d="M477.977 242.524H470.927L467.572 215.331H477.977V242.524Z" fill="#FFB8B8"/>
<path d="M479.776 249.358H457.044V249.07C457.046 246.724 457.979 244.475 459.638 242.816C461.297 241.158 463.546 240.225 465.892 240.222H479.776L479.776 249.358Z" fill="#2F2E41"/>
<path d="M544.41 236.708L537.692 238.848L526.24 213.958L536.154 210.799L544.41 236.708Z" fill="#FFB8B8"/>
<path d="M526.539 249.575L526.452 249.301C525.742 247.065 525.948 244.639 527.025 242.555C528.102 240.471 529.961 238.899 532.196 238.184L545.424 233.969L548.198 242.673L526.539 249.575Z" fill="#2F2E41"/>
<path d="M508.727 54.3061C516.527 54.3061 522.851 47.9827 522.851 40.1823C522.851 32.382 516.527 26.0585 508.727 26.0585C500.927 26.0585 494.603 32.382 494.603 40.1823C494.603 47.9827 500.927 54.3061 508.727 54.3061Z" fill="#FFB8B8"/>
<path d="M515.068 37.5647C515.149 31.8681 512.764 26.2263 509.078 23.3898C507.341 22.0134 505.18 21.2824 502.964 21.3215C500.748 21.3607 498.614 22.1676 496.926 23.6045C493.297 26.5703 491.025 32.2944 491.217 37.9862C499.349 38.0093 507.48 38.0324 515.068 37.5647Z" fill="#2F2E41"/>
<path d="M482.002 233.771L481.72 233.743C475.586 233.141 469.244 232.519 463.25 232.448L462.924 232.444L462.969 232.121C464.389 221.836 464.991 211.144 465.573 200.803C466.148 190.592 466.742 180.035 468.127 170.007C468.713 167.322 469.283 164.669 469.852 162.025C474.559 140.149 479.006 119.485 488.183 99.0308L488.27 98.8376L488.48 98.8629C497.091 99.9049 505.365 103.047 511.778 107.709L511.903 107.799L511.896 107.953C511.773 111.13 511.645 114.414 511.834 117.406C514.745 121.45 516.673 126.117 517.467 131.036C518.261 135.955 517.899 140.992 516.408 145.746C518.933 154.185 521.544 162.909 524.208 171.514C530.676 189.248 537.369 207.599 544.231 226.202L544.343 226.507L544.027 226.581C539.09 227.74 533.998 228.935 528.974 229.399L528.784 229.416L528.694 229.248C515.882 205.407 505.464 180.355 497.59 154.46C495.876 159.688 493.406 164.408 491.013 168.979C488.725 173.137 486.711 177.44 484.986 181.861C483.927 190.557 483.646 199.977 483.374 209.088C483.117 217.702 482.875 225.838 482.034 233.488L482.002 233.771Z" fill="#2F2E41"/>
<path d="M503.905 23.651C510.027 22.332 516.799 23.5869 521.607 27.7174C526.415 31.8479 528.856 38.9936 526.881 45.1219C524.906 51.2502 518.2 55.5621 512.137 53.9795C513.874 49.0845 511.919 43.0746 507.673 40.255C502.638 36.9112 501.252 28.9282 503.905 23.651Z" fill="#2F2E41"/>
<path d="M511.338 108.323L511.114 108.221C503.304 104.658 495.646 101.924 488.471 99.4295L488.251 99.3821L488.251 98.7441L488.393 98.7938C488.423 98.7276 488.457 98.6523 488.491 98.5773C488.589 98.3605 488.656 98.2129 488.713 98.1152L488.711 98.1143C489.31 96.8954 489.785 95.7175 490.245 94.5784C490.719 93.4027 491.209 92.1889 491.842 90.9046C490.308 89.3661 489.257 87.4121 488.82 85.2838C488.384 83.1554 488.579 80.9457 489.383 78.9271C490.968 75.1705 495.009 72.2447 499.256 71.7592C500.812 67.4758 504.279 58.4755 504.279 58.4755C504.279 58.4755 511.569 58.2753 514.501 57.9033L514.55 57.8971L514.599 57.9078C521 59.3103 526.343 65.3671 527.594 72.637C528.649 78.7727 527.047 85.7909 523.081 92.3989C521.047 95.6304 518.797 98.7214 516.348 101.651C514.562 103.884 512.875 105.993 511.473 108.118L511.338 108.323Z" fill="#CCCCCC"/>
<path d="M525.475 32.0207C521.189 31.381 517.824 27.0002 518.311 22.6947C518.799 18.3891 523.057 14.8709 527.377 15.2049C531.697 15.5388 535.365 19.6698 535.184 23.999C535.004 28.3283 530.946 32.8374 525.475 32.0207Z" fill="#2F2E41"/>
<path d="M524.806 29.2289C520.52 28.5892 517.155 24.2084 517.642 19.9029C517.855 18.4384 518.435 17.0516 519.328 15.8717C520.221 14.6918 521.398 13.7572 522.75 13.155C519.294 13.9115 516.32 16.9231 515.917 20.4779C515.43 24.7835 518.795 29.1642 523.08 29.8039C524.677 30.0545 526.313 29.8258 527.78 29.1467C526.801 29.3521 525.794 29.3799 524.806 29.2289Z" fill="#2F2E41"/>
<path d="M441.677 105.123C442.091 104.385 442.661 103.747 443.347 103.254C444.034 102.761 444.82 102.424 445.651 102.268C446.482 102.111 447.337 102.139 448.156 102.349C448.975 102.559 449.738 102.945 450.391 103.482L467.918 92.7542L467.558 103.427L450.969 111.978C449.995 113.015 448.674 113.66 447.257 113.789C445.839 113.918 444.424 113.522 443.278 112.677C442.133 111.832 441.337 110.596 441.042 109.204C440.747 107.812 440.973 106.359 441.677 105.123Z" fill="#FFB8B8"/>
<path d="M456.088 98.8326L456.256 98.7166C473.209 87.0252 490.735 74.9395 509.572 61.0886L509.695 60.9978L509.828 61.1099C513.167 63.9395 514.922 69.3464 513.91 73.6864C513.444 75.6537 512.385 77.4303 510.876 78.7756C509.366 80.1209 507.48 80.97 505.473 81.2077L482.8 94.4669C475.52 99.1727 467.984 104.043 460.533 108.787L460.322 108.921L460.201 108.637C458.777 105.298 457.305 101.849 456.182 99.0659L456.088 98.8326Z" fill="#CCCCCC"/>
<path d="M219.669 250H0.575049C0.422537 250 0.27627 249.939 0.168428 249.832C0.0605849 249.724 0 249.577 0 249.425C0 249.272 0.0605849 249.126 0.168428 249.018C0.27627 248.91 0.422537 248.85 0.575049 248.85H219.669C219.821 248.85 219.968 248.91 220.075 249.018C220.183 249.126 220.244 249.272 220.244 249.425C220.244 249.577 220.183 249.724 220.075 249.832C219.968 249.939 219.821 250 219.669 250Z" fill="#3F3D56"/>
<path d="M607.827 250H388.733C388.581 250 388.434 249.939 388.327 249.832C388.219 249.724 388.158 249.577 388.158 249.425C388.158 249.272 388.219 249.126 388.327 249.018C388.434 248.91 388.581 248.85 388.733 248.85H607.827C607.979 248.85 608.126 248.91 608.234 249.018C608.341 249.126 608.402 249.272 608.402 249.425C608.402 249.577 608.341 249.724 608.234 249.832C608.126 249.939 607.979 250 607.827 250Z" fill="#3F3D56"/>
</g>
<defs>
<clipPath id="clip0_16_1599">
<rect width="608.402" height="250" fill="white"/>
</clipPath>
</defs>
</svg>
